<?xml version="1.0" encoding="UTF-8"?>
<svg xmlns="http://www.w3.org/2000/svg" viewBox="0 0 64 64" fill="none" role="img" aria-label="Chasum">
  <title>Chasum</title><defs>
    <linearGradient id="icon-c" x1="18%" y1="8%" x2="82%" y2="92%">
      <stop offset="0%" stop-color="#2563EB"/>
      <stop offset="55%" stop-color="#1E40AF"/>
      <stop offset="100%" stop-color="#7C3AED"/>
    </linearGradient>
    <linearGradient id="icon-spark" x1="20%" y1="10%" x2="80%" y2="90%">
      <stop offset="0%" stop-color="#2563EB"/>
      <stop offset="100%" stop-color="#7C3AED"/>
    </linearGradient>
  </defs>
  <path fill="url(#icon-c)" fill-rule="evenodd" d="M32 5.5C17.36 5.5 5.5 17.36 5.5 32S17.36 58.5 32 58.5c8.2 0 15.55-3.78 20.4-9.72l-7.35-5.55C41.55 47.35 37 49.6 32 49.6c-9.72 0-17.6-7.88-17.6-17.6S22.28 14.4 32 14.4c5 0 9.55 2.25 12.95 5.92l7.35-5.55C47.55 9.28 40.2 5.5 32 5.5z"/>
  <rect x="16.5" y="30.2" width="15.5" height="3.6" rx="1.8" fill="url(#icon-c)"/>
  <circle cx="35.8" cy="32" r="4.4" fill="#2563EB"/>
  <circle cx="45" cy="32" r="2.7" fill="#2563EB" opacity="0.95"/>
  <circle cx="52" cy="32" r="1.95" fill="#7C3AED" opacity="0.9"/>
  <circle cx="57.4" cy="32" r="1.35" fill="#7C3AED" opacity="0.78"/>
</svg>