<?xml version="1.0" encoding="UTF-8"?>
<svg xmlns="http://www.w3.org/2000/svg" viewBox="0 0 470.664 112.836" fill="none" role="img" aria-label="Chasum — AI Business Operating System">
  <title>Chasum — AI Business Operating System</title>
  <g transform="translate(4 5.048)"><svg width="115.582" height="102.739" viewBox="0 0 72 64">  <defs>
    <linearGradient id="cd-g" x1="15%" y1="0%" x2="85%" y2="100%">
      <stop offset="0%" stop-color="#2563EB"/>
      <stop offset="50%" stop-color="#1E40AF"/>
      <stop offset="100%" stop-color="#7C3AED"/>
    </linearGradient>
  </defs>
  <path fill="url(#cd-g)" d="M 44.584 12.236 A 25.8 25.8 0 1 0 44.584 51.764 L 37.642 43.491 A 15 15 0 1 1 37.642 20.509 Z"/>
  <rect x="13.8" y="30.5" width="8.45" height="3" rx="1.5" fill="#2563EB"/>
  <circle cx="28" cy="32" r="4.4" fill="#2563EB"/>
  <rect x="33.55" y="31.1" width="5.0" height="1.8" rx="0.9" fill="#2563EB"/>
  <circle cx="41.4" cy="32" r="2.4" fill="#2563EB"/>
  <circle cx="47.3" cy="32" r="1.7" fill="#2563EB"/>
  <circle cx="52.1" cy="32" r="1.15" fill="#2563EB"/></svg></g>
  <g transform="translate(136.02 4)"><g transform="translate(0 69.75)"><path fill="#0B1324" d="M27.67 0.70Q20.60 0.70 14.99-2.43Q9.39-5.55 6.13-11.55Q2.88-17.54 2.88-26.16Q2.88-34.80 6.17-40.82Q9.46-46.83 15.08-49.96Q20.71-53.09 27.67-53.09Q33.89-53.09 38.85-50.84Q43.80-48.59 46.93-44.30Q50.06-40.01 50.80-33.89L38.25-33.89Q37.65-37.72 34.93-39.96Q32.20-42.19 27.98-42.19Q22.22-42.19 18.90-37.99Q15.57-33.79 15.57-26.16Q15.57-18.28 18.91-14.24Q22.25-10.20 27.91-10.20Q32.13-10.20 34.88-12.43Q37.62-14.66 38.29-18.49L50.84-18.49Q50.48-14.98 48.81-11.57Q47.14-8.16 44.23-5.38Q41.31-2.60 37.16-0.95Q33.01 0.70 27.67 0.70"/><path fill="#0B1324" d="M70.03 0L57.62 0L57.62-52.38L70.03-52.38L70.03-31.82L90.95-31.82L90.95-52.38L103.32-52.38L103.32 0L90.95 0L90.95-21.69L70.03-21.69"/><path fill="#0B1324" fill-rule="evenodd" d="M122.87 0L109.09 0L126.56-52.38L143.19-52.38L161.19 0L147.27 0L143.72-11.14L126.28-11.14L122.87 0M129.90-22.89L129.20-20.64L140.70-20.64L139.99-22.89Q138.62-27.39 137.32-32.31Q136.02-37.23 134.75-42.50Q133.56-37.20 132.38-32.27Q131.20-27.35 129.90-22.89 M119.17 -31.951 H151.111 V-14.671 H119.17 Z"/><circle cx="135.141" cy="-23.311" r="6.336" fill="#2563EB"/><path fill="#0B1324" d="M187.14 0.70Q177.29 0.70 171.40-3.76Q165.52-8.23 165.38-17.30L177.29-17.30Q177.50-13.46 180.12-11.53Q182.74-9.60 187-9.60Q190.86-9.60 193.08-11.16Q195.29-12.73 195.29-15.22Q195.29-17.47 193.20-18.79Q191.11-20.11 186.82-21.09L181.27-22.39Q174.48-23.94 170.61-27.46Q166.75-30.97 166.75-36.88Q166.75-41.73 169.37-45.37Q171.98-49.01 176.59-51.05Q181.20-53.09 187.14-53.09Q193.22-53.09 197.68-51.03Q202.15-48.97 204.61-45.30Q207.07-41.62 207.14-36.77L195.22-36.77Q194.98-39.62 192.90-41.20Q190.83-42.79 187.10-42.79Q183.38-42.79 181.48-41.34Q179.58-39.90 179.58-37.72Q179.58-35.30 181.69-33.98Q183.80-32.66 187.31-31.89L191.85-30.83Q199.44-29.14 203.64-25.31Q207.84-21.48 207.84-15.19Q207.84-7.73 202.36-3.52Q196.88 0.70 187.14 0.70"/><path fill="#0B1324" d="M236.53 0.67Q229.89 0.67 224.93-1.71Q219.97-4.08 217.21-8.42Q214.45-12.76 214.45-18.60L214.45-52.38L226.86-52.38L226.86-19.62Q226.86-15.50 229.54-12.83Q232.21-10.16 236.53-10.16Q240.89-10.16 243.56-12.83Q246.23-15.50 246.23-19.62L246.23-52.38L258.64-52.38L258.64-18.60Q258.64-12.76 255.87-8.42Q253.09-4.08 248.12-1.71Q243.14 0.67 236.53 0.67"/><path fill="#0B1324" d="M279.25 0L266.80 0L266.80-52.38L286.14-52.38L292.82-31.99Q293.34-30.20 294.03-27.32Q294.71-24.43 295.42-21.09Q296.12-17.75 296.75-14.62Q297.35-17.75 298.04-21.08Q298.72-24.40 299.41-27.30Q300.09-30.20 300.62-31.99L307.20-52.38L326.57-52.38L326.57 0L314.09 0L314.09-22.57Q314.09-24.57 314.17-27.83Q314.26-31.08 314.37-34.87Q314.47-38.67 314.54-42.19Q313.66-38.46 312.70-34.70Q311.73-30.94 310.85-27.76Q309.97-24.57 309.34-22.57L301.89 0L291.52 0L283.96-22.57Q283.36-24.50 282.48-27.56Q281.60-30.62 280.63-34.26Q279.67-37.90 278.79-41.59Q278.86-38.14 278.96-34.49Q279.07-30.83 279.16-27.69Q279.25-24.54 279.25-22.57"/></g><g transform="translate(51.213 96.117) scale(1.22 1)"><g transform="translate(0 9.688)"><path fill="#334155" d="M1.46 0L0.25 0L2.84-7.28L4.20-7.28L6.84 0L5.63 0L4.97-1.92L2.10-1.92L1.46 0M2.83-4.05L2.42-2.85L4.64-2.85L4.22-4.05Q4.07-4.48 3.90-5.06Q3.73-5.63 3.52-6.40Q3.30-5.62 3.13-5.04Q2.96-4.46 2.83-4.05"/><path fill="#334155" d="M8.75-7.28L9.86-7.28L9.86 0L8.75 0"/><path fill="#334155" d=""/><path fill="#334155" d="M17.58 0L14.78 0L14.78-7.28L17.46-7.28Q18.24-7.28 18.74-7.02Q19.25-6.77 19.50-6.34Q19.75-5.90 19.75-5.37Q19.75-4.68 19.39-4.32Q19.03-3.96 18.52-3.83L18.52-3.75Q18.89-3.74 19.24-3.52Q19.58-3.31 19.81-2.92Q20.04-2.52 20.04-1.96Q20.04-1.40 19.78-0.96Q19.52-0.51 18.97-0.26Q18.43 0 17.58 0M15.90-3.27L15.90-0.96L17.47-0.96Q18.26-0.96 18.59-1.26Q18.93-1.56 18.93-2.02Q18.93-2.53 18.55-2.90Q18.17-3.27 17.51-3.27L15.90-3.27M15.90-6.32L15.90-4.13L17.36-4.13Q17.91-4.13 18.28-4.44Q18.66-4.75 18.66-5.27Q18.66-5.72 18.35-6.02Q18.03-6.32 17.39-6.32"/><path fill="#334155" d="M25.04 0.11Q24.16 0.11 23.51-0.22Q22.86-0.56 22.50-1.15Q22.14-1.74 22.14-2.50L22.14-7.28L23.25-7.28L23.25-2.59Q23.25-1.86 23.73-1.38Q24.21-0.90 25.04-0.90Q25.86-0.90 26.34-1.38Q26.81-1.86 26.81-2.59L26.81-7.28L27.93-7.28L27.93-2.50Q27.93-1.74 27.57-1.15Q27.21-0.56 26.56-0.22Q25.91 0.11 25.04 0.11"/><path fill="#334155" d="M32.87 0.12Q31.65 0.12 30.92-0.45Q30.19-1.03 30.14-2.02L31.26-2.02Q31.31-1.43 31.77-1.14Q32.24-0.85 32.87-0.85Q33.56-0.85 34.01-1.18Q34.47-1.50 34.47-2.03Q34.47-2.50 34.07-2.73Q33.67-2.96 33.09-3.12L32.24-3.35Q31.34-3.59 30.84-4.06Q30.34-4.53 30.34-5.28Q30.34-5.91 30.68-6.38Q31.02-6.85 31.60-7.11Q32.19-7.37 32.92-7.37Q33.67-7.37 34.24-7.11Q34.80-6.85 35.13-6.39Q35.45-5.94 35.47-5.36L34.38-5.36Q34.33-5.86 33.92-6.13Q33.52-6.41 32.90-6.41Q32.24-6.41 31.85-6.11Q31.46-5.81 31.46-5.34Q31.46-5 31.67-4.78Q31.88-4.57 32.18-4.45Q32.49-4.32 32.76-4.25L33.47-4.06Q33.82-3.97 34.19-3.83Q34.56-3.68 34.87-3.44Q35.18-3.20 35.37-2.85Q35.57-2.50 35.57-2.01Q35.57-1.40 35.25-0.91Q34.93-0.43 34.33-0.15Q33.73 0.12 32.87 0.12"/><path fill="#334155" d="M37.67-7.28L38.78-7.28L38.78 0L37.67 0"/><path fill="#334155" d="M41.84 0L40.72 0L40.72-7.28L42-7.28L44.74-2.94Q44.91-2.67 45.14-2.26Q45.37-1.86 45.61-1.33Q45.58-1.86 45.56-2.34Q45.54-2.82 45.54-3.13L45.54-7.28L46.67-7.28L46.67 0L45.38 0L42.92-3.87Q42.74-4.16 42.58-4.44Q42.42-4.73 42.22-5.08Q42.03-5.43 41.76-5.92Q41.80-5.24 41.82-4.70Q41.84-4.17 41.84-3.88"/><path fill="#334155" d="M53.80 0L49.19 0L49.19-7.28L53.77-7.28L53.77-6.32L50.30-6.32L50.30-4.15L53.52-4.15L53.52-3.20L50.30-3.20L50.30-0.96L53.80-0.96"/><path fill="#334155" d="M58.38 0.12Q57.16 0.12 56.43-0.45Q55.70-1.03 55.65-2.02L56.77-2.02Q56.82-1.43 57.28-1.14Q57.75-0.85 58.38-0.85Q59.07-0.85 59.53-1.18Q59.98-1.50 59.98-2.03Q59.98-2.50 59.58-2.73Q59.18-2.96 58.60-3.12L57.75-3.35Q56.85-3.59 56.35-4.06Q55.85-4.53 55.85-5.28Q55.85-5.91 56.19-6.38Q56.53-6.85 57.12-7.11Q57.70-7.37 58.43-7.37Q59.18-7.37 59.75-7.11Q60.32-6.85 60.64-6.39Q60.97-5.94 60.98-5.36L59.90-5.36Q59.84-5.86 59.44-6.13Q59.03-6.41 58.41-6.41Q57.75-6.41 57.36-6.11Q56.97-5.81 56.97-5.34Q56.97-5 57.18-4.78Q57.39-4.57 57.69-4.45Q58-4.32 58.28-4.25L58.98-4.06Q59.33-3.97 59.70-3.83Q60.07-3.68 60.38-3.44Q60.69-3.20 60.89-2.85Q61.08-2.50 61.08-2.01Q61.08-1.40 60.76-0.91Q60.44-0.43 59.84-0.15Q59.24 0.12 58.38 0.12"/><path fill="#334155" d="M65.62 0.12Q64.39 0.12 63.67-0.45Q62.94-1.03 62.89-2.02L64.01-2.02Q64.06-1.43 64.52-1.14Q64.98-0.85 65.61-0.85Q66.31-0.85 66.76-1.18Q67.21-1.50 67.21-2.03Q67.21-2.50 66.82-2.73Q66.42-2.96 65.83-3.12L64.98-3.35Q64.09-3.59 63.59-4.06Q63.09-4.53 63.09-5.28Q63.09-5.91 63.43-6.38Q63.77-6.85 64.35-7.11Q64.93-7.37 65.67-7.37Q66.41-7.37 66.98-7.11Q67.55-6.85 67.88-6.39Q68.20-5.94 68.22-5.36L67.13-5.36Q67.08-5.86 66.67-6.13Q66.26-6.41 65.64-6.41Q64.98-6.41 64.59-6.11Q64.20-5.81 64.20-5.34Q64.20-5 64.41-4.78Q64.62-4.57 64.93-4.45Q65.23-4.32 65.51-4.25L66.22-4.06Q66.57-3.97 66.93-3.83Q67.30-3.68 67.62-3.44Q67.93-3.20 68.12-2.85Q68.31-2.50 68.31-2.01Q68.31-1.40 68-0.91Q67.68-0.43 67.08-0.15Q66.47 0.12 65.62 0.12"/><path fill="#334155" d=""/><path fill="#334155" d="M76.43 0.10Q75.49 0.10 74.74-0.35Q74-0.80 73.57-1.64Q73.14-2.47 73.14-3.63Q73.14-4.80 73.57-5.64Q74-6.47 74.74-6.92Q75.49-7.37 76.43-7.37Q77.37-7.37 78.11-6.92Q78.85-6.47 79.28-5.64Q79.71-4.80 79.71-3.63Q79.71-2.47 79.28-1.63Q78.85-0.80 78.11-0.35Q77.37 0.10 76.43 0.10M76.43-0.92Q77.05-0.92 77.54-1.23Q78.03-1.54 78.32-2.15Q78.60-2.75 78.60-3.63Q78.60-4.52 78.32-5.12Q78.03-5.73 77.54-6.04Q77.05-6.36 76.43-6.36Q75.81-6.36 75.31-6.04Q74.82-5.73 74.53-5.12Q74.25-4.52 74.25-3.63Q74.25-2.75 74.53-2.15Q74.82-1.54 75.31-1.23Q75.81-0.92 76.43-0.92"/><path fill="#334155" d="M83.10 0L81.98 0L81.98-7.28L84.59-7.28Q85.43-7.28 85.99-6.97Q86.55-6.66 86.83-6.12Q87.11-5.59 87.11-4.91Q87.11-4.24 86.83-3.70Q86.55-3.17 85.99-2.86Q85.43-2.55 84.58-2.55L83.10-2.55L83.10 0M83.10-6.32L83.10-3.49L84.47-3.49Q85.27-3.49 85.63-3.89Q85.98-4.30 85.98-4.91Q85.98-5.53 85.63-5.93Q85.27-6.32 84.46-6.32"/><path fill="#334155" d="M93.78 0L89.17 0L89.17-7.28L93.75-7.28L93.75-6.32L90.28-6.32L90.28-4.15L93.51-4.15L93.51-3.20L90.28-3.20L90.28-0.96L93.78-0.96"/><path fill="#334155" d="M97.04 0L95.92 0L95.92-7.28L98.53-7.28Q99.37-7.28 99.93-6.98Q100.49-6.69 100.77-6.17Q101.05-5.66 101.05-4.99Q101.05-4.26 100.72-3.72Q100.39-3.19 99.72-2.94L101.32 0L100.06 0L98.58-2.75Q98.56-2.75 98.52-2.75L97.04-2.75L97.04 0M97.04-6.32L97.04-3.70L98.41-3.70Q99.21-3.70 99.57-4.04Q99.92-4.38 99.92-4.99Q99.92-5.61 99.57-5.96Q99.21-6.32 98.40-6.32"/><path fill="#334155" d="M103.83 0L102.62 0L105.21-7.28L106.58-7.28L109.22 0L108.01 0L107.34-1.92L104.48-1.92L103.83 0M105.20-4.05L104.80-2.85L107.01-2.85L106.59-4.05Q106.45-4.48 106.28-5.06Q106.11-5.63 105.89-6.40Q105.68-5.62 105.51-5.04Q105.34-4.46 105.20-4.05"/><path fill="#334155" d="M113.03-6.32L110.76-6.32L110.76-7.28L116.40-7.28L116.40-6.32L114.14-6.32L114.14 0L113.03 0"/><path fill="#334155" d="M118.43-7.28L119.55-7.28L119.55 0L118.43 0"/><path fill="#334155" d="M122.61 0L121.48 0L121.48-7.28L122.77-7.28L125.51-2.94Q125.68-2.67 125.91-2.26Q126.14-1.86 126.38-1.33Q126.34-1.86 126.33-2.34Q126.31-2.82 126.31-3.13L126.31-7.28L127.44-7.28L127.44 0L126.15 0L123.69-3.87Q123.51-4.16 123.35-4.44Q123.18-4.73 122.99-5.08Q122.79-5.43 122.53-5.92Q122.56-5.24 122.59-4.70Q122.61-4.17 122.61-3.88"/><path fill="#334155" d="M133.01 0.10Q132.03 0.10 131.28-0.36Q130.53-0.81 130.12-1.65Q129.70-2.48 129.70-3.63Q129.70-4.79 130.12-5.63Q130.55-6.47 131.28-6.92Q132.02-7.37 132.96-7.37Q133.75-7.37 134.39-7.07Q135.03-6.76 135.45-6.22Q135.86-5.68 135.99-4.98L134.84-4.98Q134.64-5.62 134.17-5.99Q133.69-6.36 132.97-6.36Q132.36-6.36 131.87-6.04Q131.38-5.73 131.09-5.12Q130.81-4.52 130.81-3.64Q130.81-2.76 131.09-2.15Q131.38-1.55 131.87-1.23Q132.37-0.92 133.02-0.92Q133.88-0.92 134.41-1.43Q134.94-1.94 134.96-2.81L133.18-2.81L133.18-3.73L136.05-3.73L136.05-2.90Q136.05-1.98 135.66-1.31Q135.26-0.63 134.58-0.27Q133.90 0.10 133.01 0.10"/><path fill="#334155" d=""/><path fill="#334155" d="M143.76 0.12Q142.53 0.12 141.80-0.45Q141.08-1.03 141.03-2.02L142.14-2.02Q142.19-1.43 142.66-1.14Q143.12-0.85 143.75-0.85Q144.44-0.85 144.90-1.18Q145.35-1.50 145.35-2.03Q145.35-2.50 144.95-2.73Q144.56-2.96 143.97-3.12L143.12-3.35Q142.23-3.59 141.73-4.06Q141.23-4.53 141.23-5.28Q141.23-5.91 141.57-6.38Q141.91-6.85 142.49-7.11Q143.07-7.37 143.80-7.37Q144.55-7.37 145.12-7.11Q145.69-6.85 146.01-6.39Q146.34-5.94 146.35-5.36L145.27-5.36Q145.22-5.86 144.81-6.13Q144.40-6.41 143.78-6.41Q143.12-6.41 142.73-6.11Q142.34-5.81 142.34-5.34Q142.34-5 142.55-4.78Q142.76-4.57 143.06-4.45Q143.37-4.32 143.65-4.25L144.36-4.06Q144.70-3.97 145.07-3.83Q145.44-3.68 145.75-3.44Q146.07-3.20 146.26-2.85Q146.45-2.50 146.45-2.01Q146.45-1.40 146.13-0.91Q145.82-0.43 145.21-0.15Q144.61 0.12 143.76 0.12"/><path fill="#334155" d="M151.79 0L150.67 0L150.67-2.90L147.99-7.28L149.29-7.28L150.66-4.96Q150.83-4.67 150.97-4.41Q151.11-4.15 151.24-3.82Q151.38-4.16 151.51-4.42Q151.65-4.68 151.81-4.96L153.16-7.28L154.46-7.28L151.79-2.90"/><path fill="#334155" d="M158.79 0.12Q157.56 0.12 156.84-0.45Q156.11-1.03 156.06-2.02L157.18-2.02Q157.23-1.43 157.69-1.14Q158.15-0.85 158.78-0.85Q159.48-0.85 159.93-1.18Q160.39-1.50 160.39-2.03Q160.39-2.50 159.99-2.73Q159.59-2.96 159-3.12L158.15-3.35Q157.26-3.59 156.76-4.06Q156.26-4.53 156.26-5.28Q156.26-5.91 156.60-6.38Q156.94-6.85 157.52-7.11Q158.11-7.37 158.84-7.37Q159.59-7.37 160.15-7.11Q160.72-6.85 161.05-6.39Q161.37-5.94 161.39-5.36L160.30-5.36Q160.25-5.86 159.84-6.13Q159.43-6.41 158.81-6.41Q158.15-6.41 157.76-6.11Q157.37-5.81 157.37-5.34Q157.37-5 157.58-4.78Q157.79-4.57 158.10-4.45Q158.40-4.32 158.68-4.25L159.39-4.06Q159.74-3.97 160.11-3.83Q160.47-3.68 160.79-3.44Q161.10-3.20 161.29-2.85Q161.48-2.50 161.48-2.01Q161.48-1.40 161.17-0.91Q160.85-0.43 160.25-0.15Q159.64 0.12 158.79 0.12"/><path fill="#334155" d="M165.49-6.32L163.22-6.32L163.22-7.28L168.87-7.28L168.87-6.32L166.61-6.32L166.61 0L165.49 0"/><path fill="#334155" d="M175.50 0L170.89 0L170.89-7.28L175.47-7.28L175.47-6.32L172.01-6.32L172.01-4.15L175.23-4.15L175.23-3.20L172.01-3.20L172.01-0.96L175.50-0.96"/><path fill="#334155" d="M178.73 0L177.65 0L177.65-7.28L179.29-7.28L180.88-3.10Q180.95-2.91 181.04-2.60Q181.13-2.29 181.23-1.93Q181.33-1.57 181.41-1.24Q181.50-1.56 181.60-1.92Q181.70-2.28 181.79-2.59Q181.88-2.90 181.96-3.10L183.52-7.28L185.17-7.28L185.17 0L184.06 0L184.06-3.92Q184.06-4.32 184.07-4.95Q184.08-5.58 184.10-6.19Q183.97-5.75 183.84-5.31Q183.70-4.88 183.58-4.51Q183.45-4.14 183.37-3.92L181.88 0L180.93 0L179.42-3.92Q179.29-4.24 179.10-4.87Q178.90-5.49 178.69-6.17Q178.70-5.79 178.71-5.37Q178.72-4.96 178.73-4.58Q178.73-4.19 178.73-3.92"/></g></g></g>
</svg>
