<?xml version="1.0" encoding="UTF-8"?>
<svg xmlns="http://www.w3.org/2000/svg" viewBox="0 0 467.038125 119.1171875" fill="none" role="img" aria-label="Chasum — AI Business Operating System">
  <title>Chasum — AI Business Operating System</title>
  <g transform="translate(4 7.727929687500001)">
    <svg width="103.661328125" height="103.661328125" viewBox="0 0 64 64"><defs>
    <linearGradient id="flight-c" x1="18%" y1="8%" x2="82%" y2="92%">
      <stop offset="0%" stop-color="#2563EB"/>
      <stop offset="55%" stop-color="#1E40AF"/>
      <stop offset="100%" stop-color="#7C3AED"/>
    </linearGradient>
    <linearGradient id="flight-spark" x1="20%" y1="10%" x2="80%" y2="90%">
      <stop offset="0%" stop-color="#2563EB"/>
      <stop offset="100%" stop-color="#7C3AED"/>
    </linearGradient>
  </defs>
  <path fill="url(#flight-c)" fill-rule="evenodd" d="M32 5.5C17.36 5.5 5.5 17.36 5.5 32S17.36 58.5 32 58.5c8.2 0 15.55-3.78 20.4-9.72l-7.35-5.55C41.55 47.35 37 49.6 32 49.6c-9.72 0-17.6-7.88-17.6-17.6S22.28 14.4 32 14.4c5 0 9.55 2.25 12.95 5.92l7.35-5.55C47.55 9.28 40.2 5.5 32 5.5z"/>
  <rect x="16.5" y="30.2" width="15.5" height="3.6" rx="1.8" fill="url(#flight-c)"/>
  <circle cx="35.8" cy="32" r="4.4" fill="#2563EB"/>
  <circle cx="45" cy="32" r="2.7" fill="#2563EB" opacity="0.95"/>
  <circle cx="52" cy="32" r="1.95" fill="#7C3AED" opacity="0.9"/>
  <circle cx="57.4" cy="32" r="1.35" fill="#7C3AED" opacity="0.78"/></svg>
  </g>
  <g transform="translate(128.39359375 5)">
    <g transform="translate(0 69.75)"><path fill="#FFFFFF" d="M27.67 0.70Q20.60 0.70 14.99-2.43Q9.39-5.55 6.13-11.55Q2.88-17.54 2.88-26.16Q2.88-34.80 6.17-40.82Q9.46-46.83 15.08-49.96Q20.71-53.09 27.67-53.09Q33.89-53.09 38.85-50.84Q43.80-48.59 46.93-44.30Q50.06-40.01 50.80-33.89L38.25-33.89Q37.65-37.72 34.93-39.96Q32.20-42.19 27.98-42.19Q22.22-42.19 18.90-37.99Q15.57-33.79 15.57-26.16Q15.57-18.28 18.91-14.24Q22.25-10.20 27.91-10.20Q32.13-10.20 34.88-12.43Q37.62-14.66 38.29-18.49L50.84-18.49Q50.48-14.98 48.81-11.57Q47.14-8.16 44.23-5.38Q41.31-2.60 37.16-0.95Q33.01 0.70 27.67 0.70"/>
<path fill="#FFFFFF" d="M70.03 0L57.62 0L57.62-52.38L70.03-52.38L70.03-31.82L90.95-31.82L90.95-52.38L103.32-52.38L103.32 0L90.95 0L90.95-21.69L70.03-21.69"/>
<path fill="#FFFFFF" fill-rule="evenodd" d="M122.87 0L109.09 0L126.56-52.38L143.19-52.38L161.19 0L147.27 0L143.72-11.14L126.28-11.14L122.87 0M129.90-22.89L129.20-20.64L140.70-20.64L139.99-22.89Q138.62-27.39 137.32-32.31Q136.02-37.23 134.75-42.50Q133.56-37.20 132.38-32.27Q131.20-27.35 129.90-22.89 M114.84984375 -31.23140625 H155.43140625 V-15.391406250000001 H114.84984375 Z"/>
<path fill="#FFFFFF" d="M187.14 0.70Q177.29 0.70 171.40-3.76Q165.52-8.23 165.38-17.30L177.29-17.30Q177.50-13.46 180.12-11.53Q182.74-9.60 187-9.60Q190.86-9.60 193.08-11.16Q195.29-12.73 195.29-15.22Q195.29-17.47 193.20-18.79Q191.11-20.11 186.82-21.09L181.27-22.39Q174.48-23.94 170.61-27.46Q166.75-30.97 166.75-36.88Q166.75-41.73 169.37-45.37Q171.98-49.01 176.59-51.05Q181.20-53.09 187.14-53.09Q193.22-53.09 197.68-51.03Q202.15-48.97 204.61-45.30Q207.07-41.62 207.14-36.77L195.22-36.77Q194.98-39.62 192.90-41.20Q190.83-42.79 187.10-42.79Q183.38-42.79 181.48-41.34Q179.58-39.90 179.58-37.72Q179.58-35.30 181.69-33.98Q183.80-32.66 187.31-31.89L191.85-30.83Q199.44-29.14 203.64-25.31Q207.84-21.48 207.84-15.19Q207.84-7.73 202.36-3.52Q196.88 0.70 187.14 0.70"/>
<path fill="#FFFFFF" d="M236.53 0.67Q229.89 0.67 224.93-1.71Q219.97-4.08 217.21-8.42Q214.45-12.76 214.45-18.60L214.45-52.38L226.86-52.38L226.86-19.62Q226.86-15.50 229.54-12.83Q232.21-10.16 236.53-10.16Q240.89-10.16 243.56-12.83Q246.23-15.50 246.23-19.62L246.23-52.38L258.64-52.38L258.64-18.60Q258.64-12.76 255.87-8.42Q253.09-4.08 248.12-1.71Q243.14 0.67 236.53 0.67"/>
<path fill="#FFFFFF" d="M279.25 0L266.80 0L266.80-52.38L286.14-52.38L292.82-31.99Q293.34-30.20 294.03-27.32Q294.71-24.43 295.42-21.09Q296.12-17.75 296.75-14.62Q297.35-17.75 298.04-21.08Q298.72-24.40 299.41-27.30Q300.09-30.20 300.62-31.99L307.20-52.38L326.57-52.38L326.57 0L314.09 0L314.09-22.57Q314.09-24.57 314.17-27.83Q314.26-31.08 314.37-34.87Q314.47-38.67 314.54-42.19Q313.66-38.46 312.70-34.70Q311.73-30.94 310.85-27.76Q309.97-24.57 309.34-22.57L301.89 0L291.52 0L283.96-22.57Q283.36-24.50 282.48-27.56Q281.60-30.62 280.63-34.26Q279.67-37.90 278.79-41.59Q278.86-38.14 278.96-34.49Q279.07-30.83 279.16-27.69Q279.25-24.54 279.25-22.57"/><circle cx="135.140625" cy="-23.31140625" r="6.84" fill="#2563EB"/></g>
    <g transform="translate(0 89.1171875)"><g transform="translate(60.098730468750006 0) scale(1.2 1)"><g transform="translate(0 10.171875)"><path fill="#94A3B8" d="M1.53 0L0.26 0L2.98-7.64L4.41-7.64L7.18 0L5.92 0L5.21-2.01L2.21-2.01L1.53 0M2.97-4.25L2.54-2.99L4.87-2.99L4.43-4.25Q4.28-4.71 4.10-5.31Q3.92-5.91 3.69-6.72Q3.47-5.90 3.29-5.29Q3.11-4.69 2.97-4.25"/>
<path fill="#94A3B8" d="M8.29-7.64L9.46-7.64L9.46 0L8.29 0"/>
<path fill="#94A3B8" d=""/>
<path fill="#94A3B8" d="M16.89 0L13.95 0L13.95-7.64L16.77-7.64Q17.58-7.64 18.11-7.37Q18.64-7.11 18.91-6.65Q19.17-6.20 19.17-5.63Q19.17-4.92 18.79-4.53Q18.41-4.15 17.88-4.02L17.88-3.94Q18.26-3.92 18.63-3.70Q18.99-3.48 19.23-3.06Q19.47-2.65 19.47-2.06Q19.47-1.47 19.19-1Q18.92-0.54 18.35-0.27Q17.78 0 16.89 0M15.12-3.43L15.12-1L16.77-1Q17.60-1 17.95-1.32Q18.31-1.64 18.31-2.12Q18.31-2.66 17.91-3.04Q17.50-3.43 16.82-3.43L15.12-3.43M15.12-6.64L15.12-4.33L16.65-4.33Q17.23-4.33 17.63-4.66Q18.02-4.99 18.02-5.54Q18.02-6.01 17.69-6.32Q17.36-6.64 16.68-6.64"/>
<path fill="#94A3B8" d="M23.89 0.12Q22.97 0.12 22.28-0.23Q21.60-0.58 21.22-1.20Q20.85-1.83 20.85-2.62L20.85-7.64L22.02-7.64L22.02-2.72Q22.02-1.95 22.52-1.45Q23.03-0.94 23.89-0.94Q24.75-0.94 25.25-1.45Q25.75-1.95 25.75-2.72L25.75-7.64L26.93-7.64L26.93-2.62Q26.93-1.83 26.55-1.20Q26.17-0.58 25.49-0.23Q24.80 0.12 23.89 0.12"/>
<path fill="#94A3B8" d="M31.18 0.13Q29.90 0.13 29.13-0.47Q28.37-1.08 28.32-2.12L29.49-2.12Q29.54-1.50 30.03-1.20Q30.52-0.90 31.18-0.90Q31.91-0.90 32.38-1.24Q32.86-1.57 32.86-2.13Q32.86-2.62 32.44-2.87Q32.02-3.11 31.41-3.28L30.52-3.52Q29.58-3.77 29.05-4.27Q28.53-4.76 28.53-5.54Q28.53-6.20 28.88-6.70Q29.24-7.19 29.85-7.47Q30.46-7.74 31.23-7.74Q32.02-7.74 32.62-7.47Q33.21-7.19 33.55-6.71Q33.89-6.23 33.91-5.63L32.77-5.63Q32.72-6.15 32.29-6.44Q31.86-6.73 31.21-6.73Q30.52-6.73 30.11-6.41Q29.70-6.10 29.70-5.61Q29.70-5.24 29.92-5.02Q30.14-4.80 30.46-4.67Q30.78-4.54 31.07-4.46L31.81-4.27Q32.18-4.17 32.56-4.02Q32.95-3.86 33.28-3.61Q33.61-3.36 33.81-3Q34.01-2.63 34.01-2.11Q34.01-1.47 33.68-0.96Q33.35-0.45 32.71-0.16Q32.08 0.13 31.18 0.13"/>
<path fill="#94A3B8" d="M35.40-7.64L36.57-7.64L36.57 0L35.40 0"/>
<path fill="#94A3B8" d="M39.45 0L38.26 0L38.26-7.64L39.61-7.64L42.49-3.09Q42.67-2.80 42.91-2.38Q43.15-1.95 43.40-1.40Q43.36-1.95 43.35-2.46Q43.33-2.96 43.33-3.29L43.33-7.64L44.51-7.64L44.51 0L43.16 0L40.58-4.07Q40.39-4.37 40.22-4.67Q40.05-4.96 39.84-5.33Q39.64-5.71 39.36-6.22Q39.40-5.50 39.42-4.94Q39.45-4.37 39.45-4.08"/>
<path fill="#94A3B8" d="M51.04 0L46.20 0L46.20-7.64L51.01-7.64L51.01-6.63L47.37-6.63L47.37-4.36L50.76-4.36L50.76-3.36L47.37-3.36L47.37-1L51.04-1"/>
<path fill="#94A3B8" d="M55.10 0.13Q53.81 0.13 53.05-0.47Q52.28-1.08 52.23-2.12L53.41-2.12Q53.46-1.50 53.95-1.20Q54.43-0.90 55.09-0.90Q55.82-0.90 56.30-1.24Q56.78-1.57 56.78-2.13Q56.78-2.62 56.36-2.87Q55.94-3.11 55.32-3.28L54.43-3.52Q53.49-3.77 52.97-4.27Q52.44-4.76 52.44-5.54Q52.44-6.20 52.80-6.70Q53.16-7.19 53.77-7.47Q54.38-7.74 55.15-7.74Q55.94-7.74 56.53-7.47Q57.13-7.19 57.47-6.71Q57.81-6.23 57.83-5.63L56.69-5.63Q56.63-6.15 56.20-6.44Q55.78-6.73 55.13-6.73Q54.43-6.73 54.02-6.41Q53.61-6.10 53.61-5.61Q53.61-5.24 53.83-5.02Q54.05-4.80 54.37-4.67Q54.69-4.54 54.99-4.46L55.73-4.27Q56.09-4.17 56.48-4.02Q56.87-3.86 57.20-3.61Q57.52-3.36 57.73-3Q57.93-2.63 57.93-2.11Q57.93-1.47 57.60-0.96Q57.26-0.45 56.63-0.16Q56 0.13 55.10 0.13"/>
<path fill="#94A3B8" d="M61.88 0.13Q60.60 0.13 59.83-0.47Q59.07-1.08 59.02-2.12L60.19-2.12Q60.24-1.50 60.73-1.20Q61.22-0.90 61.88-0.90Q62.61-0.90 63.08-1.24Q63.56-1.57 63.56-2.13Q63.56-2.62 63.14-2.87Q62.72-3.11 62.11-3.28L61.22-3.52Q60.28-3.77 59.75-4.27Q59.23-4.76 59.23-5.54Q59.23-6.20 59.58-6.70Q59.94-7.19 60.55-7.47Q61.16-7.74 61.93-7.74Q62.72-7.74 63.32-7.47Q63.91-7.19 64.25-6.71Q64.59-6.23 64.61-5.63L63.47-5.63Q63.42-6.15 62.99-6.44Q62.56-6.73 61.91-6.73Q61.22-6.73 60.81-6.41Q60.40-6.10 60.40-5.61Q60.40-5.24 60.62-5.02Q60.84-4.80 61.16-4.67Q61.48-4.54 61.77-4.46L62.51-4.27Q62.88-4.17 63.26-4.02Q63.65-3.86 63.98-3.61Q64.31-3.36 64.51-3Q64.71-2.63 64.71-2.11Q64.71-1.47 64.38-0.96Q64.05-0.45 63.41-0.16Q62.78 0.13 61.88 0.13"/>
<path fill="#94A3B8" d=""/>
<path fill="#94A3B8" d="M72.08 0.10Q71.10 0.10 70.31-0.37Q69.53-0.84 69.08-1.72Q68.63-2.59 68.63-3.81Q68.63-5.04 69.08-5.92Q69.53-6.80 70.31-7.27Q71.10-7.74 72.08-7.74Q73.07-7.74 73.85-7.27Q74.63-6.80 75.08-5.92Q75.53-5.04 75.53-3.81Q75.53-2.59 75.08-1.71Q74.63-0.84 73.85-0.37Q73.07 0.10 72.08 0.10M72.08-0.96Q72.74-0.96 73.25-1.29Q73.77-1.62 74.07-2.26Q74.37-2.89 74.37-3.81Q74.37-4.74 74.07-5.38Q73.77-6.02 73.25-6.35Q72.74-6.68 72.08-6.68Q71.43-6.68 70.91-6.35Q70.39-6.02 70.09-5.38Q69.79-4.74 69.79-3.81Q69.79-2.89 70.09-2.26Q70.39-1.62 70.91-1.29Q71.43-0.96 72.08-0.96"/>
<path fill="#94A3B8" d="M78.12 0L76.95 0L76.95-7.64L79.69-7.64Q80.57-7.64 81.16-7.31Q81.75-6.99 82.04-6.43Q82.33-5.87 82.33-5.16Q82.33-4.45 82.04-3.89Q81.74-3.33 81.15-3Q80.56-2.68 79.68-2.68L78.12-2.68L78.12 0M78.12-6.64L78.12-3.67L79.57-3.67Q80.41-3.67 80.78-4.09Q81.15-4.51 81.15-5.16Q81.15-5.80 80.78-6.22Q80.41-6.64 79.55-6.64"/>
<path fill="#94A3B8" d="M88.53 0L83.69 0L83.69-7.64L88.50-7.64L88.50-6.63L84.86-6.63L84.86-4.36L88.24-4.36L88.24-3.36L84.86-3.36L84.86-1L88.53-1"/>
<path fill="#94A3B8" d="M91.19 0L90.02 0L90.02-7.64L92.76-7.64Q93.64-7.64 94.23-7.33Q94.82-7.02 95.11-6.48Q95.40-5.94 95.40-5.24Q95.40-4.47 95.05-3.91Q94.71-3.35 94.01-3.09L95.69 0L94.36 0L92.81-2.89Q92.78-2.89 92.75-2.89L91.19-2.89L91.19 0M91.19-6.64L91.19-3.89L92.63-3.89Q93.47-3.89 93.85-4.24Q94.22-4.60 94.22-5.24Q94.22-5.89 93.84-6.26Q93.47-6.64 92.62-6.64"/>
<path fill="#94A3B8" d="M97.50 0L96.24 0L98.96-7.64L100.39-7.64L103.16 0L101.89 0L101.19-2.01L98.19-2.01L97.50 0M98.95-4.25L98.52-2.99L100.85-2.99L100.41-4.25Q100.25-4.71 100.07-5.31Q99.89-5.91 99.67-6.72Q99.44-5.90 99.27-5.29Q99.09-4.69 98.95-4.25"/>
<path fill="#94A3B8" d="M106.27-6.63L103.88-6.63L103.88-7.64L109.81-7.64L109.81-6.63L107.44-6.63L107.44 0L106.27 0"/>
<path fill="#94A3B8" d="M111.12-7.64L112.29-7.64L112.29 0L111.12 0"/>
<path fill="#94A3B8" d="M115.17 0L113.98 0L113.98-7.64L115.33-7.64L118.21-3.09Q118.39-2.80 118.63-2.38Q118.87-1.95 119.12-1.40Q119.08-1.95 119.07-2.46Q119.05-2.96 119.05-3.29L119.05-7.64L120.23-7.64L120.23 0L118.88 0L116.30-4.07Q116.11-4.37 115.94-4.67Q115.77-4.96 115.56-5.33Q115.36-5.71 115.08-6.22Q115.12-5.50 115.14-4.94Q115.17-4.37 115.17-4.08"/>
<path fill="#94A3B8" d="M125.13 0.10Q124.10 0.10 123.31-0.37Q122.53-0.85 122.09-1.73Q121.66-2.60 121.66-3.81Q121.66-5.03 122.10-5.91Q122.54-6.79 123.32-7.27Q124.09-7.74 125.08-7.74Q125.91-7.74 126.58-7.42Q127.25-7.10 127.69-6.53Q128.13-5.97 128.26-5.22L127.06-5.22Q126.85-5.90 126.35-6.29Q125.85-6.68 125.09-6.68Q124.45-6.68 123.93-6.35Q123.42-6.02 123.12-5.38Q122.82-4.74 122.82-3.82Q122.82-2.90 123.12-2.26Q123.42-1.63 123.94-1.29Q124.46-0.96 125.14-0.96Q126.05-0.96 126.60-1.50Q127.16-2.04 127.18-2.95L125.31-2.95L125.31-3.92L128.32-3.92L128.32-3.04Q128.32-2.08 127.91-1.37Q127.50-0.67 126.78-0.28Q126.06 0.10 125.13 0.10"/>
<path fill="#94A3B8" d=""/>
<path fill="#94A3B8" d="M135.14 0.13Q133.85 0.13 133.09-0.47Q132.32-1.08 132.27-2.12L133.44-2.12Q133.50-1.50 133.98-1.20Q134.47-0.90 135.13-0.90Q135.86-0.90 136.34-1.24Q136.81-1.57 136.81-2.13Q136.81-2.62 136.39-2.87Q135.98-3.11 135.36-3.28L134.47-3.52Q133.53-3.77 133.01-4.27Q132.48-4.76 132.48-5.54Q132.48-6.20 132.84-6.70Q133.19-7.19 133.81-7.47Q134.42-7.74 135.19-7.74Q135.97-7.74 136.57-7.47Q137.17-7.19 137.51-6.71Q137.85-6.23 137.86-5.63L136.73-5.63Q136.67-6.15 136.24-6.44Q135.81-6.73 135.16-6.73Q134.47-6.73 134.06-6.41Q133.65-6.10 133.65-5.61Q133.65-5.24 133.87-5.02Q134.09-4.80 134.41-4.67Q134.73-4.54 135.02-4.46L135.77-4.27Q136.13-4.17 136.52-4.02Q136.91-3.86 137.23-3.61Q137.56-3.36 137.76-3Q137.97-2.63 137.97-2.11Q137.97-1.47 137.63-0.96Q137.30-0.45 136.67-0.16Q136.03 0.13 135.14 0.13"/>
<path fill="#94A3B8" d="M142.75 0L141.59 0L141.59-3.04L138.77-7.64L140.14-7.64L141.57-5.20Q141.75-4.90 141.90-4.63Q142.04-4.35 142.18-4.01Q142.32-4.36 142.47-4.64Q142.61-4.91 142.78-5.20L144.20-7.64L145.56-7.64L142.75-3.04"/>
<path fill="#94A3B8" d="M149.23 0.13Q147.94 0.13 147.18-0.47Q146.42-1.08 146.36-2.12L147.54-2.12Q147.59-1.50 148.08-1.20Q148.56-0.90 149.23-0.90Q149.95-0.90 150.43-1.24Q150.91-1.57 150.91-2.13Q150.91-2.62 150.49-2.87Q150.07-3.11 149.46-3.28L148.56-3.52Q147.63-3.77 147.10-4.27Q146.57-4.76 146.57-5.54Q146.57-6.20 146.93-6.70Q147.29-7.19 147.90-7.47Q148.51-7.74 149.28-7.74Q150.07-7.74 150.66-7.47Q151.26-7.19 151.60-6.71Q151.94-6.23 151.96-5.63L150.82-5.63Q150.76-6.15 150.34-6.44Q149.91-6.73 149.26-6.73Q148.56-6.73 148.15-6.41Q147.74-6.10 147.74-5.61Q147.74-5.24 147.96-5.02Q148.18-4.80 148.50-4.67Q148.83-4.54 149.12-4.46L149.86-4.27Q150.22-4.17 150.61-4.02Q151-3.86 151.33-3.61Q151.66-3.36 151.86-3Q152.06-2.63 152.06-2.11Q152.06-1.47 151.73-0.96Q151.39-0.45 150.76-0.16Q150.13 0.13 149.23 0.13"/>
<path fill="#94A3B8" d="M155.45-6.63L153.07-6.63L153.07-7.64L159-7.64L159-6.63L156.62-6.63L156.62 0L155.45 0"/>
<path fill="#94A3B8" d="M165.14 0L160.30 0L160.30-7.64L165.11-7.64L165.11-6.63L161.47-6.63L161.47-4.36L164.86-4.36L164.86-3.36L161.47-3.36L161.47-1L165.14-1"/>
<path fill="#94A3B8" d="M167.77 0L166.64 0L166.64-7.64L168.36-7.64L170.03-3.26Q170.10-3.05 170.20-2.72Q170.30-2.40 170.40-2.03Q170.50-1.65 170.59-1.30Q170.68-1.64 170.78-2.01Q170.89-2.39 170.98-2.72Q171.08-3.05 171.16-3.26L172.80-7.64L174.53-7.64L174.53 0L173.37 0L173.37-4.11Q173.37-4.53 173.38-5.20Q173.39-5.86 173.41-6.50Q173.28-6.03 173.13-5.58Q172.99-5.12 172.86-4.73Q172.73-4.35 172.65-4.11L171.08 0L170.08 0L168.50-4.11Q168.36-4.46 168.16-5.11Q167.95-5.77 167.73-6.48Q167.74-6.08 167.75-5.64Q167.76-5.20 167.77-4.80Q167.77-4.40 167.77-4.11"/></g></g></g>
  </g>
</svg>