<?xml version="1.0" encoding="UTF-8"?>
<svg xmlns="http://www.w3.org/2000/svg" viewBox="0 0 464.5 113.52" fill="none" role="img" aria-label="Chasum — AI Business Operating System">
  <title>Chasum — AI Business Operating System</title>
  <g transform="translate(4 6.11)"><svg width="107.63" height="101.3" viewBox="0 0 68 64">
  <defs>
    <linearGradient id="mlight-c" x1="28%" y1="0%" x2="72%" y2="100%">
      <stop offset="0%" stop-color="#2563EB"/>
      <stop offset="45%" stop-color="#1E40AF"/>
      <stop offset="100%" stop-color="#7C3AED"/>
    </linearGradient>
  </defs>
  <path fill="url(#mlight-c)" fill-rule="evenodd" d="M 46.13 11.35 A 26.2 26.2 0 1 0 46.13 52.65 L 39.48 44.14 A 15.4 15.4 0 1 1 39.48 19.86 Z M 7.05 29.3 H 11.35 V 34.7 H 7.05 Z"/>
  <rect x="4.2" y="30.35" width="19.9" height="3.3" rx="1.65" fill="#2563EB"/>
  <circle cx="30" cy="32" r="4.55" fill="#2563EB"/>
  <circle cx="41.75" cy="32" r="2.5" fill="#2563EB"/>
  <circle cx="47.95" cy="32" r="1.8" fill="#2563EB"/>
  <circle cx="52.95" cy="32" r="1.2" fill="#2563EB"/>
</svg></g>
  <g transform="translate(129.86 4)"><g transform="translate(0 69.75)"><path fill="#FFFFFF" d="M27.67 0.70Q20.60 0.70 14.99-2.43Q9.39-5.55 6.13-11.55Q2.88-17.54 2.88-26.16Q2.88-34.80 6.17-40.82Q9.46-46.83 15.08-49.96Q20.71-53.09 27.67-53.09Q33.89-53.09 38.85-50.84Q43.80-48.59 46.93-44.30Q50.06-40.01 50.80-33.89L38.25-33.89Q37.65-37.72 34.93-39.96Q32.20-42.19 27.98-42.19Q22.22-42.19 18.90-37.99Q15.57-33.79 15.57-26.16Q15.57-18.28 18.91-14.24Q22.25-10.20 27.91-10.20Q32.13-10.20 34.88-12.43Q37.62-14.66 38.29-18.49L50.84-18.49Q50.48-14.98 48.81-11.57Q47.14-8.16 44.23-5.38Q41.31-2.60 37.16-0.95Q33.01 0.70 27.67 0.70"/><path fill="#FFFFFF" d="M70.03 0L57.62 0L57.62-52.38L70.03-52.38L70.03-31.82L90.95-31.82L90.95-52.38L103.32-52.38L103.32 0L90.95 0L90.95-21.69L70.03-21.69"/><path d="M114.49 -0.36 L135.14 -50.94 L155.79 -0.36" fill="none" stroke="#FFFFFF" stroke-width="12.1" stroke-linejoin="miter" stroke-miterlimit="1.8" stroke-linecap="butt"/><circle cx="135.14" cy="-21.6" r="6.34" fill="#2563EB"/><path fill="#FFFFFF" d="M187.14 0.70Q177.29 0.70 171.40-3.76Q165.52-8.23 165.38-17.30L177.29-17.30Q177.50-13.46 180.12-11.53Q182.74-9.60 187-9.60Q190.86-9.60 193.08-11.16Q195.29-12.73 195.29-15.22Q195.29-17.47 193.20-18.79Q191.11-20.11 186.82-21.09L181.27-22.39Q174.48-23.94 170.61-27.46Q166.75-30.97 166.75-36.88Q166.75-41.73 169.37-45.37Q171.98-49.01 176.59-51.05Q181.20-53.09 187.14-53.09Q193.22-53.09 197.68-51.03Q202.15-48.97 204.61-45.30Q207.07-41.62 207.14-36.77L195.22-36.77Q194.98-39.62 192.90-41.20Q190.83-42.79 187.10-42.79Q183.38-42.79 181.48-41.34Q179.58-39.90 179.58-37.72Q179.58-35.30 181.69-33.98Q183.80-32.66 187.31-31.89L191.85-30.83Q199.44-29.14 203.64-25.31Q207.84-21.48 207.84-15.19Q207.84-7.73 202.36-3.52Q196.88 0.70 187.14 0.70"/><path fill="#FFFFFF" d="M236.53 0.67Q229.89 0.67 224.93-1.71Q219.97-4.08 217.21-8.42Q214.45-12.76 214.45-18.60L214.45-52.38L226.86-52.38L226.86-19.62Q226.86-15.50 229.54-12.83Q232.21-10.16 236.53-10.16Q240.89-10.16 243.56-12.83Q246.23-15.50 246.23-19.62L246.23-52.38L258.64-52.38L258.64-18.60Q258.64-12.76 255.87-8.42Q253.09-4.08 248.12-1.71Q243.14 0.67 236.53 0.67"/><path fill="#FFFFFF" d="M279.25 0L266.80 0L266.80-52.38L286.14-52.38L292.82-31.99Q293.34-30.20 294.03-27.32Q294.71-24.43 295.42-21.09Q296.12-17.75 296.75-14.62Q297.35-17.75 298.04-21.08Q298.72-24.40 299.41-27.30Q300.09-30.20 300.62-31.99L307.20-52.38L326.57-52.38L326.57 0L314.09 0L314.09-22.57Q314.09-24.57 314.17-27.83Q314.26-31.08 314.37-34.87Q314.47-38.67 314.54-42.19Q313.66-38.46 312.70-34.70Q311.73-30.94 310.85-27.76Q309.97-24.57 309.34-22.57L301.89 0L291.52 0L283.96-22.57Q283.36-24.50 282.48-27.56Q281.60-30.62 280.63-34.26Q279.67-37.90 278.79-41.59Q278.86-38.14 278.96-34.49Q279.07-30.83 279.16-27.69Q279.25-24.54 279.25-22.57"/></g><g transform="translate(52.88 97.12) scale(1.2 1)"><g transform="translate(0 9.88)"><path fill="#94A3B8" d="M1.48 0L0.25 0L2.89-7.42L4.29-7.42L6.98 0L5.75 0L5.07-1.96L2.15-1.96L1.48 0M2.88-4.13L2.47-2.90L4.73-2.90L4.30-4.13Q4.15-4.57 3.98-5.16Q3.81-5.74 3.59-6.53Q3.37-5.73 3.19-5.14Q3.02-4.55 2.88-4.13"/><path fill="#94A3B8" d="M8.78-7.42L9.91-7.42L9.91 0L8.78 0"/><path fill="#94A3B8" d=""/><path fill="#94A3B8" d="M17.68 0L14.82 0L14.82-7.42L17.56-7.42Q18.35-7.42 18.86-7.16Q19.38-6.90 19.64-6.46Q19.89-6.02 19.89-5.47Q19.89-4.78 19.53-4.41Q19.16-4.03 18.64-3.90L18.64-3.83Q19.01-3.81 19.37-3.59Q19.72-3.38 19.95-2.97Q20.18-2.57 20.18-2Q20.18-1.43 19.92-0.98Q19.65-0.52 19.10-0.26Q18.54 0 17.68 0M15.96-3.33L15.96-0.98L17.56-0.98Q18.37-0.98 18.71-1.28Q19.06-1.59 19.06-2.06Q19.06-2.58 18.67-2.96Q18.28-3.33 17.61-3.33L15.96-3.33M15.96-6.45L15.96-4.21L17.45-4.21Q18.01-4.21 18.40-4.53Q18.78-4.85 18.78-5.38Q18.78-5.84 18.46-6.14Q18.14-6.45 17.48-6.45"/><path fill="#94A3B8" d="M25.15 0.11Q24.26 0.11 23.59-0.23Q22.93-0.57 22.56-1.17Q22.19-1.77 22.19-2.55L22.19-7.42L23.33-7.42L23.33-2.64Q23.33-1.89 23.82-1.40Q24.31-0.92 25.15-0.92Q25.99-0.92 26.47-1.40Q26.96-1.89 26.96-2.64L26.96-7.42L28.10-7.42L28.10-2.55Q28.10-1.77 27.73-1.17Q27.36-0.57 26.70-0.23Q26.04 0.11 25.15 0.11"/><path fill="#94A3B8" d="M32.99 0.12Q31.74 0.12 31-0.46Q30.25-1.05 30.21-2.06L31.35-2.06Q31.40-1.45 31.87-1.16Q32.34-0.87 32.98-0.87Q33.69-0.87 34.15-1.20Q34.62-1.53 34.62-2.07Q34.62-2.55 34.21-2.79Q33.81-3.02 33.21-3.18L32.34-3.42Q31.43-3.67 30.92-4.14Q30.41-4.62 30.41-5.38Q30.41-6.03 30.76-6.51Q31.10-6.99 31.70-7.25Q32.29-7.52 33.04-7.52Q33.80-7.52 34.38-7.25Q34.96-6.99 35.29-6.52Q35.62-6.06 35.64-5.47L34.53-5.47Q34.48-5.98 34.06-6.26Q33.65-6.53 33.01-6.53Q32.34-6.53 31.94-6.23Q31.54-5.92 31.54-5.45Q31.54-5.10 31.76-4.88Q31.97-4.66 32.28-4.53Q32.60-4.41 32.88-4.33L33.60-4.14Q33.96-4.05 34.33-3.90Q34.71-3.75 35.03-3.51Q35.34-3.27 35.54-2.91Q35.74-2.55 35.74-2.05Q35.74-1.42 35.41-0.93Q35.09-0.44 34.48-0.16Q33.86 0.12 32.99 0.12"/><path fill="#94A3B8" d="M37.75-7.42L38.88-7.42L38.88 0L37.75 0"/><path fill="#94A3B8" d="M41.95 0L40.80 0L40.80-7.42L42.11-7.42L44.91-3Q45.08-2.72 45.32-2.31Q45.55-1.89 45.80-1.36Q45.76-1.90 45.74-2.39Q45.72-2.88 45.72-3.20L45.72-7.42L46.88-7.42L46.88 0L45.56 0L43.06-3.95Q42.87-4.24 42.70-4.53Q42.54-4.82 42.34-5.18Q42.14-5.54 41.87-6.04Q41.90-5.34 41.93-4.80Q41.95-4.25 41.95-3.96"/><path fill="#94A3B8" d="M53.99 0L49.29 0L49.29-7.42L53.96-7.42L53.96-6.44L50.43-6.44L50.43-4.23L53.71-4.23L53.71-3.26L50.43-3.26L50.43-0.98L53.99-0.98"/><path fill="#94A3B8" d="M58.55 0.12Q57.30 0.12 56.55-0.46Q55.81-1.05 55.76-2.06L56.90-2.06Q56.95-1.45 57.43-1.16Q57.90-0.87 58.54-0.87Q59.25-0.87 59.71-1.20Q60.18-1.53 60.18-2.07Q60.18-2.55 59.77-2.79Q59.36-3.02 58.77-3.18L57.90-3.42Q56.99-3.67 56.48-4.14Q55.97-4.62 55.97-5.38Q55.97-6.03 56.31-6.51Q56.66-6.99 57.25-7.25Q57.85-7.52 58.60-7.52Q59.36-7.52 59.94-7.25Q60.52-6.99 60.85-6.52Q61.18-6.06 61.20-5.47L60.09-5.47Q60.04-5.98 59.62-6.26Q59.20-6.53 58.57-6.53Q57.90-6.53 57.50-6.23Q57.10-5.92 57.10-5.45Q57.10-5.10 57.32-4.88Q57.53-4.66 57.84-4.53Q58.15-4.41 58.44-4.33L59.16-4.14Q59.51-4.05 59.89-3.90Q60.26-3.75 60.58-3.51Q60.90-3.27 61.10-2.91Q61.30-2.55 61.30-2.05Q61.30-1.42 60.97-0.93Q60.65-0.44 60.03-0.16Q59.42 0.12 58.55 0.12"/><path fill="#94A3B8" d="M65.79 0.12Q64.54 0.12 63.80-0.46Q63.06-1.05 63.01-2.06L64.15-2.06Q64.20-1.45 64.67-1.16Q65.15-0.87 65.79-0.87Q66.50-0.87 66.96-1.20Q67.42-1.53 67.42-2.07Q67.42-2.55 67.02-2.79Q66.61-3.02 66.01-3.18L65.15-3.42Q64.24-3.67 63.73-4.14Q63.21-4.62 63.21-5.38Q63.21-6.03 63.56-6.51Q63.91-6.99 64.50-7.25Q65.10-7.52 65.84-7.52Q66.61-7.52 67.19-7.25Q67.77-6.99 68.10-6.52Q68.43-6.06 68.44-5.47L67.34-5.47Q67.28-5.98 66.87-6.26Q66.45-6.53 65.82-6.53Q65.15-6.53 64.75-6.23Q64.35-5.92 64.35-5.45Q64.35-5.10 64.56-4.88Q64.78-4.66 65.09-4.53Q65.40-4.41 65.68-4.33L66.41-4.14Q66.76-4.05 67.14-3.90Q67.51-3.75 67.83-3.51Q68.15-3.27 68.35-2.91Q68.54-2.55 68.54-2.05Q68.54-1.42 68.22-0.93Q67.90-0.44 67.28-0.16Q66.67 0.12 65.79 0.12"/><path fill="#94A3B8" d=""/><path fill="#94A3B8" d="M76.64 0.10Q75.68 0.10 74.92-0.36Q74.16-0.82 73.72-1.67Q73.28-2.52 73.28-3.71Q73.28-4.90 73.72-5.75Q74.16-6.60 74.92-7.06Q75.68-7.52 76.64-7.52Q77.60-7.52 78.35-7.06Q79.11-6.60 79.54-5.75Q79.98-4.90 79.98-3.71Q79.98-2.52 79.54-1.67Q79.11-0.81 78.35-0.36Q77.60 0.10 76.64 0.10M76.64-0.94Q77.27-0.94 77.77-1.26Q78.27-1.57 78.56-2.19Q78.85-2.81 78.85-3.71Q78.85-4.61 78.56-5.23Q78.27-5.85 77.77-6.17Q77.27-6.48 76.64-6.48Q76-6.48 75.50-6.17Q74.99-5.85 74.70-5.23Q74.41-4.61 74.41-3.71Q74.41-2.81 74.70-2.19Q74.99-1.57 75.50-1.26Q76-0.94 76.64-0.94"/><path fill="#94A3B8" d="M83.28 0L82.14 0L82.14-7.42L84.80-7.42Q85.66-7.42 86.23-7.10Q86.81-6.79 87.09-6.24Q87.37-5.70 87.37-5.01Q87.37-4.32 87.09-3.78Q86.80-3.23 86.23-2.92Q85.66-2.60 84.79-2.60L83.28-2.60L83.28 0M83.28-6.45L83.28-3.56L84.68-3.56Q85.50-3.56 85.86-3.97Q86.22-4.38 86.22-5.01Q86.22-5.64 85.86-6.04Q85.50-6.45 84.67-6.45"/><path fill="#94A3B8" d="M94.05 0L89.34 0L89.34-7.42L94.02-7.42L94.02-6.44L90.48-6.44L90.48-4.23L93.77-4.23L93.77-3.26L90.48-3.26L90.48-0.98L94.05-0.98"/><path fill="#94A3B8" d="M97.25 0L96.11 0L96.11-7.42L98.77-7.42Q99.63-7.42 100.20-7.12Q100.77-6.82 101.06-6.30Q101.34-5.77 101.34-5.09Q101.34-4.34 101-3.80Q100.66-3.25 99.98-3L101.62 0L100.33 0L98.82-2.80Q98.79-2.80 98.76-2.80L97.25-2.80L97.25 0M97.25-6.45L97.25-3.78L98.65-3.78Q99.47-3.78 99.83-4.12Q100.19-4.47 100.19-5.09Q100.19-5.72 99.83-6.08Q99.46-6.45 98.64-6.45"/><path fill="#94A3B8" d="M104.04 0L102.81 0L105.45-7.42L106.85-7.42L109.54 0L108.31 0L107.62-1.96L104.70-1.96L104.04 0M105.44-4.13L105.03-2.90L107.29-2.90L106.86-4.13Q106.71-4.57 106.54-5.16Q106.36-5.74 106.14-6.53Q105.92-5.73 105.75-5.14Q105.58-4.55 105.44-4.13"/><path fill="#94A3B8" d="M113.28-6.44L110.96-6.44L110.96-7.42L116.72-7.42L116.72-6.44L114.42-6.44L114.42 0L113.28 0"/><path fill="#94A3B8" d="M118.66-7.42L119.79-7.42L119.79 0L118.66 0"/><path fill="#94A3B8" d="M122.87 0L121.72 0L121.72-7.42L123.03-7.42L125.82-3Q125.99-2.72 126.23-2.31Q126.46-1.89 126.71-1.36Q126.67-1.90 126.65-2.39Q126.64-2.88 126.64-3.20L126.64-7.42L127.79-7.42L127.79 0L126.47 0L123.97-3.95Q123.78-4.24 123.62-4.53Q123.45-4.82 123.25-5.18Q123.05-5.54 122.78-6.04Q122.82-5.34 122.84-4.80Q122.87-4.25 122.87-3.96"/><path fill="#94A3B8" d="M133.32 0.10Q132.31 0.10 131.55-0.36Q130.79-0.83 130.37-1.68Q129.94-2.53 129.94-3.71Q129.94-4.89 130.37-5.74Q130.81-6.60 131.56-7.06Q132.31-7.52 133.27-7.52Q134.07-7.52 134.72-7.21Q135.38-6.90 135.80-6.35Q136.23-5.80 136.35-5.08L135.19-5.08Q134.98-5.73 134.50-6.11Q134.01-6.48 133.28-6.48Q132.65-6.48 132.15-6.17Q131.65-5.85 131.36-5.23Q131.07-4.61 131.07-3.71Q131.07-2.81 131.36-2.20Q131.65-1.58 132.16-1.26Q132.67-0.94 133.33-0.94Q134.21-0.94 134.75-1.46Q135.29-1.98 135.31-2.87L133.49-2.87L133.49-3.81L136.42-3.81L136.42-2.95Q136.42-2.02 136.02-1.33Q135.62-0.65 134.92-0.27Q134.22 0.10 133.32 0.10"/><path fill="#94A3B8" d=""/><path fill="#94A3B8" d="M144.07 0.12Q142.82 0.12 142.08-0.46Q141.34-1.05 141.29-2.06L142.43-2.06Q142.48-1.45 142.95-1.16Q143.42-0.87 144.07-0.87Q144.77-0.87 145.24-1.20Q145.70-1.53 145.70-2.07Q145.70-2.55 145.29-2.79Q144.89-3.02 144.29-3.18L143.42-3.42Q142.51-3.67 142-4.14Q141.49-4.62 141.49-5.38Q141.49-6.03 141.84-6.51Q142.18-6.99 142.78-7.25Q143.37-7.52 144.12-7.52Q144.88-7.52 145.46-7.25Q146.04-6.99 146.37-6.52Q146.71-6.06 146.72-5.47L145.62-5.47Q145.56-5.98 145.14-6.26Q144.73-6.53 144.10-6.53Q143.42-6.53 143.03-6.23Q142.63-5.92 142.63-5.45Q142.63-5.10 142.84-4.88Q143.06-4.66 143.37-4.53Q143.68-4.41 143.96-4.33L144.68-4.14Q145.04-4.05 145.41-3.90Q145.79-3.75 146.11-3.51Q146.43-3.27 146.62-2.91Q146.82-2.55 146.82-2.05Q146.82-1.42 146.50-0.93Q146.17-0.44 145.56-0.16Q144.94 0.12 144.07 0.12"/><path fill="#94A3B8" d="M152.13 0L151 0L151-2.95L148.26-7.42L149.59-7.42L150.98-5.06Q151.16-4.76 151.30-4.49Q151.44-4.23 151.57-3.90Q151.71-4.24 151.85-4.50Q151.99-4.77 152.16-5.06L153.54-7.42L154.86-7.42L152.13-2.95"/><path fill="#94A3B8" d="M159.13 0.12Q157.88 0.12 157.14-0.46Q156.40-1.05 156.35-2.06L157.49-2.06Q157.54-1.45 158.01-1.16Q158.48-0.87 159.13-0.87Q159.83-0.87 160.30-1.20Q160.76-1.53 160.76-2.07Q160.76-2.55 160.35-2.79Q159.95-3.02 159.35-3.18L158.48-3.42Q157.57-3.67 157.06-4.14Q156.55-4.62 156.55-5.38Q156.55-6.03 156.90-6.51Q157.24-6.99 157.84-7.25Q158.43-7.52 159.18-7.52Q159.94-7.52 160.52-7.25Q161.10-6.99 161.44-6.52Q161.77-6.06 161.78-5.47L160.68-5.47Q160.62-5.98 160.21-6.26Q159.79-6.53 159.16-6.53Q158.48-6.53 158.09-6.23Q157.69-5.92 157.69-5.45Q157.69-5.10 157.90-4.88Q158.12-4.66 158.43-4.53Q158.74-4.41 159.02-4.33L159.74-4.14Q160.10-4.05 160.47-3.90Q160.85-3.75 161.17-3.51Q161.49-3.27 161.68-2.91Q161.88-2.55 161.88-2.05Q161.88-1.42 161.56-0.93Q161.23-0.44 160.62-0.16Q160 0.12 159.13 0.12"/><path fill="#94A3B8" d="M165.83-6.44L163.52-6.44L163.52-7.42L169.28-7.42L169.28-6.44L166.97-6.44L166.97 0L165.83 0"/><path fill="#94A3B8" d="M175.92 0L171.21 0L171.21-7.42L175.89-7.42L175.89-6.44L172.35-6.44L172.35-4.23L175.64-4.23L175.64-3.26L172.35-3.26L172.35-0.98L175.92-0.98"/><path fill="#94A3B8" d="M179.09 0L177.98 0L177.98-7.42L179.65-7.42L181.27-3.16Q181.35-2.96 181.44-2.65Q181.54-2.33 181.64-1.97Q181.74-1.60 181.82-1.27Q181.91-1.59 182.01-1.96Q182.11-2.32 182.20-2.64Q182.30-2.96 182.37-3.16L183.97-7.42L185.65-7.42L185.65 0L184.52 0L184.52-3.99Q184.52-4.40 184.53-5.05Q184.54-5.69 184.56-6.32Q184.43-5.86 184.29-5.42Q184.15-4.98 184.03-4.60Q183.90-4.22 183.82-3.99L182.30 0L181.33 0L179.79-3.99Q179.66-4.33 179.46-4.97Q179.26-5.60 179.04-6.29Q179.05-5.90 179.06-5.48Q179.07-5.06 179.08-4.67Q179.09-4.28 179.09-3.99"/></g></g></g>
</svg>
