<?xml version="1.0" encoding="UTF-8"?>
<svg xmlns="http://www.w3.org/2000/svg" viewBox="0 0 446.09 97.14" fill="none" role="img" aria-label="Chasum">
<title>Chasum</title>
<svg x="4.24" y="4.24" width="94.26" height="88.67" viewBox="-33.5 -33.5 71.2233502538071 67">
<title>Chasum</title>
<defs><linearGradient id="fl" x1="18%" y1="0%" x2="82%" y2="100%">
    <stop offset="0%" stop-color="#2563EB"/>
    <stop offset="48%" stop-color="#1E40AF"/>
    <stop offset="100%" stop-color="#7C3AED"/>
  </linearGradient></defs>
<path fill="url(#fl)" fill-rule="evenodd" d="M 27.372 16.577 A 32 32 0 1 1 27.372 -16.577 L 6.221 -16.577 A 17.705583756345177 17.705583756345177 0 1 0 6.221 16.577 Z M -22.579 -1.624h 5.101a 1.624 1.624 0 0 1 0 3.249h -5.101a 1.624 1.624 0 0 1 0 -3.249Z"/>
<circle cx="0" cy="0" r="5.523" fill="#2563EB"/>
<rect x="2.209" y="-2.112" width="21.344" height="4.223" rx="2.112" fill="#2563EB"/>
<circle cx="25.827" cy="0" r="1.949" fill="#2563EB"/><circle cx="30.051" cy="0" r="1.949" fill="#2563EB"/><circle cx="34.274" cy="0" r="1.949" fill="#2563EB"/>
</svg>
<svg x="106.54" y="5.36" width="335.31" height="86.43" viewBox="0 0 335.31 86.43">
<title>Chasum</title>
<g transform="translate(4.00 57.09)"><path fill="#FFFFFF" d="M27.63 0.70Q20.64 0.70 15.15-2.46Q9.67-5.62 6.49-11.64Q3.30-17.65 3.30-26.16Q3.30-34.70 6.50-40.73Q9.70-46.76 15.22-49.92Q20.74-53.09 27.63-53.09Q33.57-53.09 38.39-50.89Q43.21-48.69 46.30-44.53Q49.39-40.36 50.17-34.49L39.30-34.49Q38.57-38.74 35.46-41.15Q32.34-43.56 27.84-43.56Q21.73-43.56 17.96-39.02Q14.20-34.49 14.20-26.16Q14.20-17.65 17.98-13.24Q21.76-8.82 27.81-8.82Q32.27-8.82 35.42-11.23Q38.57-13.64 39.34-17.93L50.20-17.93Q49.61-13.04 46.76-8.81Q43.91-4.57 39.08-1.93Q34.24 0.70 27.63 0.70"/><path fill="#FFFFFF" d="M69.63 0L58.91 0L58.91-52.38L69.63-52.38L69.63-31.22L92.45-31.22L92.45-52.38L103.21-52.38L103.21 0L92.45 0L92.45-22.32L69.63-22.32"/><path fill="#FFFFFF" d="M 110.40 0 L 131.48 -47.27 Q 134.04 -52.38 136.60 -47.27 L 157.69 0 L 144.13 0 L 134.04 -27.80 L 123.95 0 Z"/><circle cx="134.04" cy="-25.14" r="5.58" fill="#2563EB"/><path fill="#FFFFFF" d="M188.82 0.77Q179.36 0.77 173.72-3.57Q168.08-7.91 167.87-16.24L178.31-16.24Q178.59-12.27 181.49-10.28Q184.39-8.30 188.72-8.30Q193-8.30 195.62-10.14Q198.24-11.99 198.24-14.98Q198.24-17.68 195.87-19.12Q193.50-20.57 189.21-21.62L183.44-23.06Q176.80-24.68 173.04-28.14Q169.27-31.61 169.27-37.30Q169.27-42.05 171.82-45.60Q174.37-49.15 178.82-51.12Q183.27-53.09 188.96-53.09Q194.76-53.09 199.09-51.10Q203.41-49.11 205.84-45.58Q208.26-42.05 208.33-37.44L197.96-37.44Q197.68-40.61 195.27-42.33Q192.86-44.05 188.86-44.05Q184.74-44.05 182.51-42.35Q180.28-40.64 180.28-38Q180.28-35.09 182.79-33.64Q185.31-32.20 188.65-31.39L193.39-30.23Q197.79-29.21 201.34-27.30Q204.89-25.38 206.96-22.34Q209.04-19.30 209.04-14.91Q209.04-7.77 203.71-3.50Q198.38 0.77 188.82 0.77"/><path fill="#FFFFFF" d="M239.36 0.74Q232.82 0.74 227.97-1.65Q223.12-4.04 220.43-8.35Q217.74-12.66 217.74-18.39L217.74-52.38L228.47-52.38L228.47-19.27Q228.47-14.70 231.44-11.72Q234.41-8.75 239.36-8.75Q244.29-8.75 247.26-11.72Q250.23-14.70 250.23-19.27L250.23-52.38L260.98-52.38L260.98-18.39Q260.98-12.66 258.26-8.35Q255.54-4.04 250.68-1.65Q245.83 0.74 239.36 0.74"/><path fill="#FFFFFF" d="M280.34 0L269.69 0L269.69-52.38L286.14-52.38L294.65-28.34Q295.18-26.68 295.85-24.01Q296.51-21.34 297.24-18.26Q297.96-15.19 298.55-12.34Q299.15-15.15 299.85-18.23Q300.56-21.30 301.23-23.98Q301.89-26.65 302.42-28.34L310.79-52.38L327.31-52.38L327.31 0L316.52 0L316.52-24.71Q316.52-26.68 316.61-29.74Q316.69-32.80 316.78-36.32Q316.87-39.83 316.91-43.14Q316.03-39.62 315.06-36.07Q314.09-32.52 313.21-29.55Q312.34-26.58 311.70-24.71L303.02 0L293.98 0L285.16-24.71Q284.56-26.51 283.70-29.39Q282.84-32.27 281.85-35.74Q280.87-39.20 279.96-42.71Q280.03-39.55 280.11-36.12Q280.20-32.70 280.27-29.69Q280.34-26.68 280.34-24.71"/><g transform="translate(0 67.49)" fill="#334155"><path d="M1.59 0L0.27 0L3.10-7.96L4.60-7.96L7.49 0L6.17 0L5.43-2.10L2.30-2.10L1.59 0M3.09-4.43L2.65-3.12L5.08-3.12L4.62-4.43Q4.46-4.91 4.27-5.53Q4.08-6.16 3.85-7.01Q3.61-6.15 3.43-5.52Q3.24-4.88 3.09-4.43"/><path d="M14.22-7.96L15.44-7.96L15.44 0L14.22 0"/><path d=""/><path d="M31 0L27.94 0L27.94-7.96L30.87-7.96Q31.71-7.96 32.27-7.68Q32.83-7.41 33.10-6.93Q33.38-6.46 33.38-5.87Q33.38-5.12 32.98-4.73Q32.59-4.33 32.03-4.19L32.03-4.11Q32.43-4.09 32.81-3.86Q33.19-3.62 33.44-3.19Q33.69-2.76 33.69-2.15Q33.69-1.53 33.40-1.05Q33.11-0.56 32.52-0.28Q31.92 0 31 0M29.16-3.57L29.16-1.05L30.88-1.05Q31.74-1.05 32.11-1.38Q32.48-1.71 32.48-2.21Q32.48-2.77 32.06-3.17Q31.64-3.57 30.92-3.57L29.16-3.57M29.16-6.92L29.16-4.52L30.75-4.52Q31.36-4.52 31.77-4.86Q32.18-5.20 32.18-5.77Q32.18-6.26 31.84-6.59Q31.49-6.92 30.79-6.92"/><path d="M43.88 0.12Q42.92 0.12 42.20-0.24Q41.49-0.61 41.10-1.26Q40.71-1.90 40.71-2.74L40.71-7.96L41.92-7.96L41.92-2.84Q41.92-2.03 42.45-1.51Q42.98-0.98 43.88-0.98Q44.78-0.98 45.30-1.51Q45.82-2.03 45.82-2.84L45.82-7.96L47.04-7.96L47.04-2.74Q47.04-1.90 46.65-1.26Q46.25-0.61 45.54-0.24Q44.83 0.12 43.88 0.12"/><path d="M57.06 0.13Q55.72 0.13 54.92-0.49Q54.13-1.12 54.07-2.21L55.30-2.21Q55.35-1.56 55.86-1.25Q56.37-0.94 57.06-0.94Q57.81-0.94 58.31-1.29Q58.81-1.64 58.81-2.22Q58.81-2.74 58.37-2.99Q57.94-3.24 57.30-3.41L56.37-3.67Q55.39-3.93 54.84-4.45Q54.29-4.96 54.29-5.78Q54.29-6.47 54.66-6.98Q55.04-7.50 55.67-7.78Q56.31-8.07 57.11-8.07Q57.93-8.07 58.55-7.78Q59.18-7.50 59.53-7Q59.89-6.50 59.90-5.87L58.72-5.87Q58.66-6.41 58.21-6.71Q57.77-7.01 57.09-7.01Q56.37-7.01 55.94-6.68Q55.51-6.35 55.51-5.85Q55.51-5.47 55.74-5.23Q55.97-5 56.30-4.87Q56.64-4.73 56.94-4.65L57.72-4.45Q58.10-4.35 58.50-4.19Q58.90-4.02 59.25-3.76Q59.59-3.51 59.80-3.12Q60.01-2.74 60.01-2.20Q60.01-1.53 59.66-1Q59.32-0.47 58.66-0.17Q58 0.13 57.06 0.13"/><path d="M67.04-7.96L68.26-7.96L68.26 0L67.04 0"/><path d="M76.84 0L75.60 0L75.60-7.96L77.01-7.96L80.01-3.22Q80.19-2.92 80.45-2.48Q80.70-2.03 80.96-1.46Q80.92-2.04 80.90-2.56Q80.88-3.09 80.88-3.43L80.88-7.96L82.12-7.96L82.12 0L80.71 0L78.02-4.24Q77.82-4.55 77.64-4.86Q77.46-5.17 77.25-5.56Q77.04-5.95 76.75-6.48Q76.79-5.73 76.81-5.15Q76.84-4.56 76.84-4.25"/><path d="M94.51 0L89.46 0L89.46-7.96L94.48-7.96L94.48-6.91L90.68-6.91L90.68-4.54L94.21-4.54L94.21-3.50L90.68-3.50L90.68-1.05L94.51-1.05"/><path d="M104.32 0.13Q102.98 0.13 102.18-0.49Q101.38-1.12 101.33-2.21L102.55-2.21Q102.61-1.56 103.11-1.25Q103.62-0.94 104.31-0.94Q105.07-0.94 105.57-1.29Q106.06-1.64 106.06-2.22Q106.06-2.74 105.63-2.99Q105.19-3.24 104.55-3.41L103.62-3.67Q102.64-3.93 102.10-4.45Q101.55-4.96 101.55-5.78Q101.55-6.47 101.92-6.98Q102.29-7.50 102.93-7.78Q103.57-8.07 104.37-8.07Q105.19-8.07 105.81-7.78Q106.43-7.50 106.79-7Q107.14-6.50 107.16-5.87L105.97-5.87Q105.91-6.41 105.47-6.71Q105.02-7.01 104.34-7.01Q103.62-7.01 103.19-6.68Q102.77-6.35 102.77-5.85Q102.77-5.47 103-5.23Q103.23-5 103.56-4.87Q103.89-4.73 104.20-4.65L104.97-4.45Q105.35-4.35 105.76-4.19Q106.16-4.02 106.50-3.76Q106.84-3.51 107.06-3.12Q107.27-2.74 107.27-2.20Q107.27-1.53 106.92-1Q106.57-0.47 105.91-0.17Q105.25 0.13 104.32 0.13"/><path d="M116.97 0.13Q115.63 0.13 114.83-0.49Q114.03-1.12 113.98-2.21L115.21-2.21Q115.26-1.56 115.77-1.25Q116.27-0.94 116.96-0.94Q117.72-0.94 118.22-1.29Q118.72-1.64 118.72-2.22Q118.72-2.74 118.28-2.99Q117.84-3.24 117.20-3.41L116.27-3.67Q115.30-3.93 114.75-4.45Q114.20-4.96 114.20-5.78Q114.20-6.47 114.57-6.98Q114.94-7.50 115.58-7.78Q116.22-8.07 117.02-8.07Q117.84-8.07 118.46-7.78Q119.08-7.50 119.44-7Q119.80-6.50 119.81-5.87L118.63-5.87Q118.57-6.41 118.12-6.71Q117.67-7.01 117-7.01Q116.27-7.01 115.85-6.68Q115.42-6.35 115.42-5.85Q115.42-5.47 115.65-5.23Q115.88-5 116.21-4.87Q116.55-4.73 116.85-4.65L117.63-4.45Q118.01-4.35 118.41-4.19Q118.81-4.02 119.15-3.76Q119.50-3.51 119.71-3.12Q119.92-2.74 119.92-2.20Q119.92-1.53 119.57-1Q119.22-0.47 118.56-0.17Q117.90 0.13 116.97 0.13"/><path d=""/><path d="M135.42 0.11Q134.39 0.11 133.57-0.38Q132.76-0.88 132.29-1.79Q131.82-2.70 131.82-3.98Q131.82-5.25 132.29-6.17Q132.76-7.09 133.57-7.58Q134.39-8.07 135.42-8.07Q136.45-8.07 137.26-7.58Q138.07-7.09 138.54-6.17Q139-5.25 139-3.98Q139-2.70 138.54-1.79Q138.07-0.87 137.26-0.38Q136.45 0.11 135.42 0.11M135.42-1Q136.10-1 136.63-1.35Q137.17-1.69 137.48-2.35Q137.80-3.01 137.80-3.98Q137.80-4.94 137.48-5.61Q137.17-6.27 136.63-6.62Q136.10-6.96 135.42-6.96Q134.73-6.96 134.19-6.62Q133.65-6.27 133.34-5.61Q133.03-4.94 133.03-3.98Q133.03-3.01 133.34-2.35Q133.65-1.69 134.19-1.35Q134.73-1 135.42-1"/><path d="M147.29 0L146.07 0L146.07-7.96L148.92-7.96Q149.84-7.96 150.46-7.62Q151.07-7.28 151.38-6.70Q151.68-6.11 151.68-5.38Q151.68-4.64 151.37-4.05Q151.07-3.47 150.45-3.13Q149.84-2.79 148.91-2.79L147.29-2.79L147.29 0M147.29-6.92L147.29-3.82L148.80-3.82Q149.67-3.82 150.06-4.26Q150.45-4.70 150.45-5.38Q150.45-6.05 150.06-6.48Q149.67-6.92 148.78-6.92"/><path d="M163.72 0L158.67 0L158.67-7.96L163.69-7.96L163.69-6.91L159.89-6.91L159.89-4.54L163.42-4.54L163.42-3.50L159.89-3.50L159.89-1.05L163.72-1.05"/><path d="M172.07 0L170.86 0L170.86-7.96L173.71-7.96Q174.63-7.96 175.24-7.64Q175.86-7.32 176.16-6.76Q176.47-6.19 176.47-5.46Q176.47-4.66 176.10-4.07Q175.74-3.49 175.01-3.22L176.77 0L175.38 0L173.77-3.01Q173.74-3.01 173.70-3.01L172.07-3.01L172.07 0M172.07-6.92L172.07-4.05L173.58-4.05Q174.46-4.05 174.84-4.42Q175.23-4.79 175.23-5.46Q175.23-6.13 174.84-6.53Q174.45-6.92 173.57-6.92"/><path d="M184.24 0L182.92 0L185.75-7.96L187.25-7.96L190.13 0L188.81 0L188.08-2.10L184.95-2.10L184.24 0M185.74-4.43L185.30-3.12L187.72-3.12L187.26-4.43Q187.10-4.91 186.92-5.53Q186.73-6.16 186.49-7.01Q186.26-6.15 186.07-5.52Q185.89-4.88 185.74-4.43"/><path d="M198.95-6.91L196.47-6.91L196.47-7.96L202.65-7.96L202.65-6.91L200.18-6.91L200.18 0L198.95 0"/><path d="M209.60-7.96L210.81-7.96L210.81 0L209.60 0"/><path d="M219.39 0L218.16 0L218.16-7.96L219.56-7.96L222.56-3.22Q222.75-2.92 223-2.48Q223.25-2.03 223.52-1.46Q223.48-2.04 223.46-2.56Q223.44-3.09 223.44-3.43L223.44-7.96L224.67-7.96L224.67 0L223.26 0L220.57-4.24Q220.38-4.55 220.20-4.86Q220.02-5.17 219.81-5.56Q219.59-5.95 219.30-6.48Q219.34-5.73 219.37-5.15Q219.39-4.56 219.39-4.25"/><path d="M235.36 0.11Q234.28 0.11 233.47-0.39Q232.65-0.89 232.20-1.80Q231.74-2.71 231.74-3.98Q231.74-5.25 232.20-6.16Q232.67-7.08 233.47-7.57Q234.28-8.07 235.31-8.07Q236.17-8.07 236.87-7.74Q237.57-7.40 238.03-6.81Q238.48-6.22 238.62-5.45L237.37-5.45Q237.15-6.15 236.63-6.55Q236.11-6.96 235.32-6.96Q234.65-6.96 234.11-6.62Q233.57-6.27 233.26-5.61Q232.95-4.94 232.95-3.98Q232.95-3.02 233.26-2.36Q233.57-1.69 234.12-1.35Q234.66-1 235.37-1Q236.32-1 236.89-1.56Q237.47-2.12 237.50-3.08L235.55-3.08L235.55-4.08L238.69-4.08L238.69-3.17Q238.69-2.16 238.26-1.43Q237.83-0.69 237.08-0.29Q236.33 0.11 235.36 0.11"/><path d=""/><path d="M253.60 0.13Q252.26 0.13 251.47-0.49Q250.67-1.12 250.62-2.21L251.84-2.21Q251.89-1.56 252.40-1.25Q252.91-0.94 253.60-0.94Q254.36-0.94 254.85-1.29Q255.35-1.64 255.35-2.22Q255.35-2.74 254.92-2.99Q254.48-3.24 253.84-3.41L252.91-3.67Q251.93-3.93 251.38-4.45Q250.84-4.96 250.84-5.78Q250.84-6.47 251.21-6.98Q251.58-7.50 252.22-7.78Q252.86-8.07 253.66-8.07Q254.48-8.07 255.10-7.78Q255.72-7.50 256.08-7Q256.43-6.50 256.45-5.87L255.26-5.87Q255.20-6.41 254.76-6.71Q254.31-7.01 253.63-7.01Q252.91-7.01 252.48-6.68Q252.05-6.35 252.05-5.85Q252.05-5.47 252.28-5.23Q252.51-5 252.85-4.87Q253.18-4.73 253.49-4.65L254.26-4.45Q254.64-4.35 255.04-4.19Q255.45-4.02 255.79-3.76Q256.13-3.51 256.34-3.12Q256.55-2.74 256.55-2.20Q256.55-1.53 256.21-1Q255.86-0.47 255.20-0.17Q254.54 0.13 253.60 0.13"/><path d="M267.13 0L265.91 0L265.91-3.17L262.97-7.96L264.40-7.96L265.89-5.42Q266.08-5.11 266.23-4.82Q266.38-4.54 266.53-4.18Q266.68-4.55 266.83-4.83Q266.98-5.12 267.15-5.42L268.63-7.96L270.05-7.96L267.13-3.17"/><path d="M279.46 0.13Q278.12 0.13 277.32-0.49Q276.52-1.12 276.47-2.21L277.69-2.21Q277.75-1.56 278.26-1.25Q278.76-0.94 279.45-0.94Q280.21-0.94 280.71-1.29Q281.21-1.64 281.21-2.22Q281.21-2.74 280.77-2.99Q280.33-3.24 279.69-3.41L278.76-3.67Q277.79-3.93 277.24-4.45Q276.69-4.96 276.69-5.78Q276.69-6.47 277.06-6.98Q277.43-7.50 278.07-7.78Q278.71-8.07 279.51-8.07Q280.33-8.07 280.95-7.78Q281.57-7.50 281.93-7Q282.28-6.50 282.30-5.87L281.11-5.87Q281.06-6.41 280.61-6.71Q280.16-7.01 279.48-7.01Q278.76-7.01 278.34-6.68Q277.91-6.35 277.91-5.85Q277.91-5.47 278.14-5.23Q278.37-5 278.70-4.87Q279.04-4.73 279.34-4.65L280.12-4.45Q280.49-4.35 280.90-4.19Q281.30-4.02 281.64-3.76Q281.99-3.51 282.20-3.12Q282.41-2.74 282.41-2.20Q282.41-1.53 282.06-1Q281.71-0.47 281.05-0.17Q280.39 0.13 279.46 0.13"/><path d="M291.52-6.91L289.04-6.91L289.04-7.96L295.22-7.96L295.22-6.91L292.75-6.91L292.75 0L291.52 0"/><path d="M307.21 0L302.16 0L302.16-7.96L307.18-7.96L307.18-6.91L303.38-6.91L303.38-4.54L306.91-4.54L306.91-3.50L303.38-3.50L303.38-1.05L307.21-1.05"/><path d="M315.53 0L314.35 0L314.35-7.96L316.14-7.96L317.88-3.39Q317.96-3.18 318.06-2.84Q318.16-2.50 318.27-2.11Q318.37-1.72 318.47-1.36Q318.56-1.71 318.67-2.10Q318.78-2.49 318.88-2.83Q318.98-3.17 319.06-3.39L320.77-7.96L322.57-7.96L322.57 0L321.36 0L321.36-4.29Q321.36-4.72 321.38-5.42Q321.39-6.11 321.40-6.78Q321.27-6.29 321.12-5.81Q320.97-5.34 320.83-4.93Q320.70-4.53 320.61-4.29L318.98 0L317.94 0L316.29-4.29Q316.15-4.64 315.93-5.33Q315.71-6.01 315.48-6.75Q315.49-6.33 315.50-5.88Q315.52-5.42 315.52-5.01Q315.53-4.59 315.53-4.29"/></g></g>
</svg>
</svg>