<?xml version="1.0" encoding="UTF-8"?>
<svg xmlns="http://www.w3.org/2000/svg" viewBox="0 0 410.58 65.75" fill="none" role="img" aria-label="Chasum">
<title>Chasum</title>
<svg x="2.87" y="2.87" width="63.80" height="60.02" viewBox="-33.5 -33.5 71.2233502538071 67">
<title>Chasum</title>
<defs><linearGradient id="hl" x1="18%" y1="0%" x2="82%" y2="100%">
    <stop offset="0%" stop-color="#2563EB"/>
    <stop offset="48%" stop-color="#1E40AF"/>
    <stop offset="100%" stop-color="#7C3AED"/>
  </linearGradient></defs>
<path fill="url(#hl)" fill-rule="evenodd" d="M 27.372 16.577 A 32 32 0 1 1 27.372 -16.577 L 6.221 -16.577 A 17.705583756345177 17.705583756345177 0 1 0 6.221 16.577 Z M -22.579 -1.624h 5.101a 1.624 1.624 0 0 1 0 3.249h -5.101a 1.624 1.624 0 0 1 0 -3.249Z"/>
<circle cx="0" cy="0" r="5.523" fill="#2563EB"/>
<rect x="2.209" y="-2.112" width="21.344" height="4.223" rx="2.112" fill="#2563EB"/>
<circle cx="25.827" cy="0" r="1.949" fill="#2563EB"/><circle cx="30.051" cy="0" r="1.949" fill="#2563EB"/><circle cx="34.274" cy="0" r="1.949" fill="#2563EB"/>
</svg>
<svg x="72.40" y="3.33" width="335.31" height="59.09" viewBox="0 0 335.31 59.09">
<title>Chasum</title>
<g transform="translate(4.00 57.09)"><path fill="#FFFFFF" d="M27.63 0.70Q20.64 0.70 15.15-2.46Q9.67-5.62 6.49-11.64Q3.30-17.65 3.30-26.16Q3.30-34.70 6.50-40.73Q9.70-46.76 15.22-49.92Q20.74-53.09 27.63-53.09Q33.57-53.09 38.39-50.89Q43.21-48.69 46.30-44.53Q49.39-40.36 50.17-34.49L39.30-34.49Q38.57-38.74 35.46-41.15Q32.34-43.56 27.84-43.56Q21.73-43.56 17.96-39.02Q14.20-34.49 14.20-26.16Q14.20-17.65 17.98-13.24Q21.76-8.82 27.81-8.82Q32.27-8.82 35.42-11.23Q38.57-13.64 39.34-17.93L50.20-17.93Q49.61-13.04 46.76-8.81Q43.91-4.57 39.08-1.93Q34.24 0.70 27.63 0.70"/><path fill="#FFFFFF" d="M69.63 0L58.91 0L58.91-52.38L69.63-52.38L69.63-31.22L92.45-31.22L92.45-52.38L103.21-52.38L103.21 0L92.45 0L92.45-22.32L69.63-22.32"/><path fill="#FFFFFF" d="M 110.40 0 L 131.48 -47.27 Q 134.04 -52.38 136.60 -47.27 L 157.69 0 L 144.13 0 L 134.04 -27.80 L 123.95 0 Z"/><circle cx="134.04" cy="-25.14" r="5.58" fill="#2563EB"/><path fill="#FFFFFF" d="M188.82 0.77Q179.36 0.77 173.72-3.57Q168.08-7.91 167.87-16.24L178.31-16.24Q178.59-12.27 181.49-10.28Q184.39-8.30 188.72-8.30Q193-8.30 195.62-10.14Q198.24-11.99 198.24-14.98Q198.24-17.68 195.87-19.12Q193.50-20.57 189.21-21.62L183.44-23.06Q176.80-24.68 173.04-28.14Q169.27-31.61 169.27-37.30Q169.27-42.05 171.82-45.60Q174.37-49.15 178.82-51.12Q183.27-53.09 188.96-53.09Q194.76-53.09 199.09-51.10Q203.41-49.11 205.84-45.58Q208.26-42.05 208.33-37.44L197.96-37.44Q197.68-40.61 195.27-42.33Q192.86-44.05 188.86-44.05Q184.74-44.05 182.51-42.35Q180.28-40.64 180.28-38Q180.28-35.09 182.79-33.64Q185.31-32.20 188.65-31.39L193.39-30.23Q197.79-29.21 201.34-27.30Q204.89-25.38 206.96-22.34Q209.04-19.30 209.04-14.91Q209.04-7.77 203.71-3.50Q198.38 0.77 188.82 0.77"/><path fill="#FFFFFF" d="M239.36 0.74Q232.82 0.74 227.97-1.65Q223.12-4.04 220.43-8.35Q217.74-12.66 217.74-18.39L217.74-52.38L228.47-52.38L228.47-19.27Q228.47-14.70 231.44-11.72Q234.41-8.75 239.36-8.75Q244.29-8.75 247.26-11.72Q250.23-14.70 250.23-19.27L250.23-52.38L260.98-52.38L260.98-18.39Q260.98-12.66 258.26-8.35Q255.54-4.04 250.68-1.65Q245.83 0.74 239.36 0.74"/><path fill="#FFFFFF" d="M280.34 0L269.69 0L269.69-52.38L286.14-52.38L294.65-28.34Q295.18-26.68 295.85-24.01Q296.51-21.34 297.24-18.26Q297.96-15.19 298.55-12.34Q299.15-15.15 299.85-18.23Q300.56-21.30 301.23-23.98Q301.89-26.65 302.42-28.34L310.79-52.38L327.31-52.38L327.31 0L316.52 0L316.52-24.71Q316.52-26.68 316.61-29.74Q316.69-32.80 316.78-36.32Q316.87-39.83 316.91-43.14Q316.03-39.62 315.06-36.07Q314.09-32.52 313.21-29.55Q312.34-26.58 311.70-24.71L303.02 0L293.98 0L285.16-24.71Q284.56-26.51 283.70-29.39Q282.84-32.27 281.85-35.74Q280.87-39.20 279.96-42.71Q280.03-39.55 280.11-36.12Q280.20-32.70 280.27-29.69Q280.34-26.68 280.34-24.71"/></g>
</svg>
</svg>