<?xml version="1.0" encoding="utf-8"?>
<!-- Generator: Adobe Illustrator 24.3.0, SVG Export Plug-In . SVG Version: 6.00 Build 0)  -->
<svg version="1.1" xmlns="http://www.w3.org/2000/svg" xmlns:xlink="http://www.w3.org/1999/xlink" x="0px" y="0px" width="1200px"
	 height="1200px" viewBox="0 0 1200 1200" enable-background="new 0 0 1200 1200" xml:space="preserve">
<g id="master_logo">
	<g>
		<g>
			<linearGradient id="full-1_" gradientUnits="userSpaceOnUse" x1="145.5453" y1="599.9999" x2="280.1125" y2="599.9999">
				<stop  offset="0" style="stop-color:#076BEF"/>
				<stop  offset="0.3797" style="stop-color:#3A2CF2"/>
				<stop  offset="1" style="stop-color:#5A26ED"/>
			</linearGradient>
			<path fill="url(#full-1_)" d="M272.05,591.362h-74.992c-3.585-10.383-13.42-17.853-25.022-17.853
				c-14.631,0-26.491,11.861-26.491,26.491c0,14.631,11.86,26.491,26.491,26.491c12.028,0,22.168-8.023,25.401-19.005h74.613
				c4.453,0,8.062-3.61,8.062-8.062C280.113,594.971,276.503,591.362,272.05,591.362z"/>
			<linearGradient id="full-2_" gradientUnits="userSpaceOnUse" x1="112.5058" y1="511.9881" x2="249.8441" y2="720.2393">
				<stop  offset="0" style="stop-color:#0178FB"/>
				<stop  offset="0.3687" style="stop-color:#003CE6"/>
				<stop  offset="0.834" style="stop-color:#661EF6"/>
			</linearGradient>
			<path fill="url(#full-2_)" d="M172.036,681.777c-42.639,0-77.638-32.637-81.421-74.29H71.063c-4.453,0-8.063-3.61-8.063-8.062
				c0-4.453,3.61-8.062,8.063-8.062h19.654c4.316-41.102,39.074-73.139,81.319-73.139c23.373,0,44.439,9.822,59.342,25.543
				l43.985-43.418c-26.115-27.073-62.741-43.939-103.328-43.939c-79.302,0-143.59,64.287-143.59,143.59s64.287,143.59,143.59,143.59
				c40.881,0,77.743-17.113,103.893-44.532l-43.985-43.418C217.012,671.711,195.704,681.777,172.036,681.777z"/>
			<linearGradient id="full-3_" gradientUnits="userSpaceOnUse" x1="289.1843" y1="599.4241" x2="304.9255" y2="599.4241">
				<stop  offset="0.0608" style="stop-color:#0D6AFD"/>
				<stop  offset="1" style="stop-color:#003CE6"/>
			</linearGradient>
			<circle fill="url(#full-3_)" cx="297.055" cy="599.424" r="7.871"/>
			<linearGradient id="full-4_" gradientUnits="userSpaceOnUse" x1="312.412" y1="599.4241" x2="328.1532" y2="599.4241">
				<stop  offset="0.0608" style="stop-color:#0D6AFD"/>
				<stop  offset="1" style="stop-color:#003CE6"/>
			</linearGradient>
			<circle fill="url(#full-4_)" cx="320.283" cy="599.424" r="7.871"/>
			<linearGradient id="full-5_" gradientUnits="userSpaceOnUse" x1="335.6398" y1="599.4241" x2="351.3809" y2="599.4241">
				<stop  offset="0.0608" style="stop-color:#0D6AFD"/>
				<stop  offset="1" style="stop-color:#003CE6"/>
			</linearGradient>
			<path fill="url(#full-5_)" d="M343.51,591.553c-4.347,0-7.87,3.524-7.87,7.871s3.524,7.871,7.87,7.871
				c4.347,0,7.871-3.524,7.871-7.871S347.857,591.553,343.51,591.553z"/>
		</g>
		<g>
			<path fill="#020D29" d="M418.711,561.391v10.577c0,26.927,21.829,48.756,48.756,48.756h42.823v-20.982h-37.492
				c-17.334,0-31.386-14.052-31.386-31.386v-3.354c0-17.334,14.052-31.386,31.386-31.386h37.492v-20.982h-42.823
				C440.54,512.634,418.711,534.463,418.711,561.391z"/>
			<polygon fill="#020D29" points="617.434,555.457 562.486,555.457 562.486,512.634 540.043,512.634 540.043,620.724 
				562.486,620.724 562.486,577.901 617.434,577.901 617.434,620.724 639.877,620.724 639.877,512.634 617.434,512.634 			"/>
			<polygon fill="#020D29" points="725.007,512.634 713.914,512.634 665.674,620.724 691.213,620.724 725.007,545.912 
				758.801,620.724 784.34,620.724 736.1,512.634 			"/>
			<path fill="#020D29" d="M872.27,556.756h-29.304c-6.712,0-12.079-5.76-11.426-12.607c0.569-5.969,5.923-10.352,11.919-10.352
				h58.774v-21.163h-61.1c-17.664,0-31.984,14.32-31.984,31.984v0.267c0,17.664,14.32,31.984,31.984,31.984h29.241
				c6.34,0,11.48,5.14,11.48,11.48v0c0,6.34-5.14,11.48-11.48,11.48h-59.204v20.895h61.101c17.664,0,31.984-14.32,31.984-31.984v0
				C904.253,571.076,889.934,556.756,872.27,556.756z"/>
			<path fill="#020D29" d="M1006.968,571.967c0,14.532-11.781,26.313-26.313,26.313h0c-14.532,0-26.313-11.781-26.313-26.313
				v-59.333h-22.185v61.612c0,26.785,21.713,48.498,48.498,48.498h0c26.785,0,48.498-21.714,48.498-48.498v-61.612h-22.185V571.967z
				"/>
			<polygon fill="#020D29" points="1147.82,512.634 1115.058,583.017 1082.296,512.634 1058.562,512.634 1058.562,620.724 
				1081.78,620.724 1081.78,566.679 1106.029,614.016 1115.058,614.016 1124.087,614.016 1148.336,566.679 1148.336,620.724 
				1171.553,620.724 1171.553,512.634 			"/>
		</g>
		<linearGradient id="full-6_" gradientUnits="userSpaceOnUse" x1="711.0768" y1="606.0193" x2="738.9376" y2="606.0193">
			<stop  offset="0.0608" style="stop-color:#0D6AFD"/>
			<stop  offset="1" style="stop-color:#003CE6"/>
		</linearGradient>
		<circle fill="url(#full-6_)" cx="725.007" cy="606.019" r="13.93"/>
		<g>
			<path fill="#020D29" d="M440.625,682.814h-12.401l-2.567,6.365h-3.434l10.568-25.462h3.301l10.601,25.462h-3.5L440.625,682.814z
				 M439.459,679.904l-5.034-12.477l-5.034,12.477H439.459z"/>
			<path fill="#020D29" d="M456.561,663.717h3.333v25.462h-3.333V663.717z"/>
			<path fill="#020D29" d="M507.565,678.213c0.778,1.078,1.167,2.443,1.167,4.092c0,2.206-0.762,3.904-2.284,5.092
				c-1.522,1.188-3.739,1.782-6.65,1.782h-11.134v-25.462h10.467c2.667,0,4.728,0.582,6.185,1.746
				c1.455,1.163,2.184,2.777,2.184,4.838c0,1.333-0.283,2.485-0.851,3.455c-0.566,0.97-1.328,1.709-2.283,2.218
				C505.72,676.388,506.788,677.133,507.565,678.213z M491.997,666.663v8.148h6.834c1.712,0,3.028-0.345,3.951-1.037
				c0.922-0.691,1.383-1.703,1.383-3.037c0-1.333-0.462-2.346-1.383-3.037c-0.923-0.692-2.239-1.037-3.951-1.037H491.997z
				 M503.932,685.214c0.955-0.679,1.433-1.746,1.433-3.201c0-2.838-1.899-4.256-5.7-4.256h-7.668v8.475h7.668
				C501.553,686.232,502.976,685.893,503.932,685.214z"/>
			<path fill="#020D29" d="M522.7,686.56c-1.734-1.94-2.6-4.729-2.6-8.366v-14.477h3.333v14.332c0,5.456,2.189,8.184,6.567,8.184
				c2.134,0,3.767-0.673,4.901-2.019s1.7-3.401,1.7-6.165v-14.332h3.233v14.477c0,3.662-0.866,6.456-2.6,8.384
				s-4.156,2.892-7.267,2.892C526.856,689.47,524.434,688.5,522.7,686.56z"/>
			<path fill="#020D29" d="M554.787,688.579c-1.634-0.594-2.918-1.365-3.851-2.31l1.233-2.838c0.889,0.873,2.028,1.583,3.417,2.128
				c1.389,0.546,2.817,0.818,4.284,0.818c1.934,0,3.377-0.357,4.334-1.073c0.955-0.715,1.434-1.667,1.434-2.856
				c0-0.873-0.261-1.582-0.783-2.127c-0.523-0.546-1.167-0.964-1.934-1.255s-1.85-0.619-3.25-0.983
				c-1.755-0.46-3.172-0.921-4.251-1.381c-1.077-0.461-2-1.17-2.767-2.128c-0.767-0.957-1.15-2.249-1.15-3.874
				c0-1.358,0.328-2.582,0.983-3.673c0.655-1.091,1.651-1.965,2.984-2.619c1.334-0.655,2.989-0.983,4.967-0.983
				c1.378,0,2.734,0.194,4.067,0.582c1.334,0.389,2.478,0.946,3.434,1.673l-1.1,2.91c-0.978-0.679-2.023-1.194-3.134-1.546
				c-1.111-0.351-2.2-0.527-3.267-0.527c-1.889,0-3.305,0.376-4.25,1.128c-0.945,0.752-1.417,1.722-1.417,2.91
				c0,0.872,0.266,1.582,0.8,2.127c0.533,0.546,1.194,0.97,1.983,1.273c0.788,0.304,1.861,0.625,3.217,0.964
				c1.755,0.461,3.167,0.923,4.234,1.382c1.067,0.461,1.983,1.164,2.75,2.11c0.767,0.946,1.151,2.219,1.151,3.82
				c0,1.334-0.333,2.553-1.001,3.656c-0.666,1.103-1.678,1.976-3.033,2.619c-1.356,0.642-3.023,0.964-5.001,0.964
				C558.114,689.47,556.42,689.173,554.787,688.579z"/>
			<path fill="#020D29" d="M580.172,663.717h3.333v25.462h-3.333V663.717z"/>
			<path fill="#020D29" d="M616.975,663.717v25.462h-2.734l-14.001-18.987v18.987h-3.333v-25.462h2.733l14.001,18.987v-18.987
				H616.975z"/>
			<path fill="#020D29" d="M647.313,686.014v3.164h-16.935v-25.462h16.468v3.164h-13.135v7.821h11.701v3.092h-11.701v8.22H647.313z"
				/>
			<path fill="#020D29" d="M660.83,688.579c-1.634-0.594-2.918-1.365-3.851-2.31l1.233-2.838c0.889,0.873,2.028,1.583,3.417,2.128
				c1.389,0.546,2.817,0.818,4.284,0.818c1.934,0,3.378-0.357,4.334-1.073c0.955-0.715,1.434-1.667,1.434-2.856
				c0-0.873-0.261-1.582-0.783-2.127c-0.523-0.546-1.167-0.964-1.934-1.255s-1.85-0.619-3.25-0.983
				c-1.755-0.46-3.172-0.921-4.251-1.381c-1.077-0.461-2-1.17-2.767-2.128c-0.767-0.957-1.149-2.249-1.149-3.874
				c0-1.358,0.328-2.582,0.983-3.673c0.655-1.091,1.651-1.965,2.984-2.619c1.334-0.655,2.989-0.983,4.967-0.983
				c1.378,0,2.734,0.194,4.067,0.582c1.334,0.389,2.478,0.946,3.434,1.673l-1.1,2.91c-0.978-0.679-2.023-1.194-3.134-1.546
				c-1.111-0.351-2.2-0.527-3.267-0.527c-1.889,0-3.305,0.376-4.25,1.128c-0.945,0.752-1.417,1.722-1.417,2.91
				c0,0.872,0.266,1.582,0.8,2.127c0.533,0.546,1.194,0.97,1.983,1.273c0.788,0.304,1.861,0.625,3.217,0.964
				c1.755,0.461,3.167,0.923,4.234,1.382c1.067,0.461,1.983,1.164,2.75,2.11c0.767,0.946,1.15,2.219,1.15,3.82
				c0,1.334-0.333,2.553-1,3.656c-0.666,1.103-1.678,1.976-3.033,2.619c-1.356,0.642-3.023,0.964-5.001,0.964
				C664.158,689.47,662.463,689.173,660.83,688.579z"/>
			<path fill="#020D29" d="M687.933,688.579c-1.634-0.594-2.918-1.365-3.851-2.31l1.233-2.838c0.889,0.873,2.028,1.583,3.417,2.128
				c1.389,0.546,2.817,0.818,4.284,0.818c1.934,0,3.378-0.357,4.334-1.073c0.955-0.715,1.434-1.667,1.434-2.856
				c0-0.873-0.261-1.582-0.783-2.127c-0.523-0.546-1.167-0.964-1.934-1.255s-1.85-0.619-3.25-0.983
				c-1.755-0.46-3.172-0.921-4.251-1.381c-1.078-0.461-2-1.17-2.767-2.128c-0.767-0.957-1.15-2.249-1.15-3.874
				c0-1.358,0.328-2.582,0.983-3.673c0.655-1.091,1.651-1.965,2.984-2.619c1.334-0.655,2.989-0.983,4.967-0.983
				c1.378,0,2.734,0.194,4.067,0.582c1.334,0.389,2.478,0.946,3.434,1.673l-1.1,2.91c-0.978-0.679-2.023-1.194-3.134-1.546
				c-1.111-0.351-2.2-0.527-3.267-0.527c-1.888,0-3.305,0.376-4.25,1.128c-0.945,0.752-1.417,1.722-1.417,2.91
				c0,0.872,0.266,1.582,0.8,2.127c0.533,0.546,1.194,0.97,1.983,1.273c0.788,0.304,1.861,0.625,3.217,0.964
				c1.755,0.461,3.167,0.923,4.234,1.382c1.067,0.461,1.983,1.164,2.75,2.11c0.767,0.946,1.151,2.219,1.151,3.82
				c0,1.334-0.333,2.553-1,3.656c-0.666,1.103-1.678,1.976-3.033,2.619c-1.356,0.642-3.023,0.964-5.001,0.964
				C691.26,689.47,689.566,689.173,687.933,688.579z"/>
			<path fill="#020D29" d="M732.854,687.779c-1.89-1.128-3.373-2.686-4.451-4.674c-1.077-1.988-1.616-4.207-1.616-6.656
				c0-2.449,0.539-4.668,1.616-6.657c1.078-1.987,2.562-3.546,4.451-4.674c1.889-1.127,4.011-1.691,6.367-1.691
				c2.334,0,4.445,0.564,6.334,1.691c1.89,1.128,3.368,2.68,4.434,4.656c1.067,1.976,1.6,4.201,1.6,6.675
				c0,2.473-0.534,4.698-1.6,6.674c-1.067,1.976-2.545,3.528-4.434,4.656c-1.889,1.128-4,1.691-6.334,1.691
				C736.865,689.47,734.742,688.906,732.854,687.779z M743.838,684.96c1.368-0.849,2.445-2.019,3.234-3.511
				c0.788-1.491,1.183-3.157,1.183-5.001c0-1.843-0.395-3.511-1.183-5.002c-0.789-1.492-1.867-2.661-3.234-3.511
				c-1.367-0.849-2.906-1.273-4.617-1.273c-1.712,0-3.262,0.424-4.65,1.273c-1.389,0.85-2.479,2.019-3.267,3.511
				c-0.789,1.491-1.184,3.158-1.184,5.002c0,1.843,0.395,3.51,1.184,5.001c0.788,1.492,1.878,2.662,3.267,3.511
				c1.388,0.849,2.938,1.273,4.65,1.273C740.932,686.232,742.471,685.808,743.838,684.96z"/>
			<path fill="#020D29" d="M779.324,666.081c1.734,1.577,2.601,3.747,2.601,6.511c0,2.765-0.867,4.934-2.601,6.511
				c-1.733,1.576-4.112,2.364-7.134,2.364h-5.767v7.711h-3.333v-25.462h9.1C775.213,663.717,777.592,664.505,779.324,666.081z
				 M776.925,676.83c1.111-0.983,1.667-2.395,1.667-4.238c0-1.842-0.556-3.255-1.667-4.238c-1.112-0.982-2.723-1.473-4.834-1.473
				h-5.668v11.422h5.668C774.201,678.303,775.813,677.812,776.925,676.83z"/>
			<path fill="#020D29" d="M810.162,686.014v3.164h-16.935v-25.462h16.468v3.164H796.56v7.821h11.701v3.092H796.56v8.22H810.162z"/>
			<path fill="#020D29" d="M837.563,689.179l-5.033-7.821c-0.623,0.049-1.112,0.073-1.467,0.073h-5.767v7.748h-3.333v-25.462h9.1
				c3.022,0,5.401,0.788,7.134,2.364c1.734,1.577,2.601,3.747,2.601,6.511c0,1.964-0.445,3.637-1.334,5.019
				c-0.889,1.382-2.156,2.389-3.8,3.019l5.533,8.548H837.563z M835.797,676.848c1.111-0.994,1.667-2.412,1.667-4.256
				c0-1.842-0.555-3.255-1.667-4.238c-1.112-0.982-2.723-1.473-4.834-1.473h-5.668v11.459h5.668
				C833.074,678.34,834.685,677.843,835.797,676.848z"/>
			<path fill="#020D29" d="M867.466,682.814h-12.401l-2.567,6.365h-3.434l10.568-25.462h3.301l10.601,25.462h-3.5L867.466,682.814z
				 M866.3,679.904l-5.034-12.477l-5.034,12.477H866.3z"/>
			<path fill="#020D29" d="M886.869,666.881h-8.001v-3.164h19.302v3.164h-8v22.297h-3.301V666.881z"/>
			<path fill="#020D29" d="M908.205,663.717h3.333v25.462h-3.333V663.717z"/>
			<path fill="#020D29" d="M945.008,663.717v25.462h-2.734l-14.001-18.987v18.987h-3.333v-25.462h2.733l14.001,18.987v-18.987
				H945.008z"/>
			<path fill="#020D29" d="M974.578,676.302h3.2v9.93c-1.155,1.043-2.5,1.843-4.034,2.401s-3.134,0.837-4.8,0.837
				c-2.356,0-4.479-0.563-6.367-1.691c-1.89-1.128-3.373-2.68-4.451-4.656c-1.078-1.976-1.616-4.201-1.616-6.674
				c0-2.474,0.539-4.705,1.616-6.693c1.078-1.988,2.567-3.54,4.468-4.656c1.9-1.115,4.039-1.673,6.417-1.673
				c1.867,0,3.561,0.333,5.083,1.001c1.521,0.667,2.817,1.643,3.884,2.929l-2.067,2.255c-1.867-1.964-4.122-2.946-6.767-2.946
				c-1.779,0-3.374,0.418-4.785,1.255c-1.411,0.837-2.516,2.001-3.316,3.492s-1.201,3.17-1.201,5.038
				c0,1.843,0.401,3.51,1.201,5.001c0.8,1.492,1.905,2.662,3.316,3.511c1.411,0.849,2.995,1.273,4.751,1.273
				c2.089,0,3.911-0.546,5.467-1.637V676.302z"/>
			<path fill="#020D29" d="M1007.631,688.579c-1.634-0.594-2.918-1.365-3.851-2.31l1.233-2.838c0.889,0.873,2.028,1.583,3.417,2.128
				c1.389,0.546,2.817,0.818,4.284,0.818c1.934,0,3.377-0.357,4.334-1.073c0.955-0.715,1.434-1.667,1.434-2.856
				c0-0.873-0.261-1.582-0.783-2.127c-0.523-0.546-1.167-0.964-1.934-1.255s-1.85-0.619-3.25-0.983
				c-1.755-0.46-3.172-0.921-4.251-1.381c-1.077-0.461-2-1.17-2.767-2.128c-0.767-0.957-1.15-2.249-1.15-3.874
				c0-1.358,0.328-2.582,0.983-3.673c0.655-1.091,1.651-1.965,2.984-2.619c1.334-0.655,2.989-0.983,4.967-0.983
				c1.378,0,2.734,0.194,4.067,0.582c1.334,0.389,2.478,0.946,3.434,1.673l-1.1,2.91c-0.978-0.679-2.023-1.194-3.134-1.546
				c-1.111-0.351-2.2-0.527-3.267-0.527c-1.889,0-3.305,0.376-4.25,1.128c-0.945,0.752-1.417,1.722-1.417,2.91
				c0,0.872,0.266,1.582,0.8,2.127c0.533,0.546,1.194,0.97,1.983,1.273c0.788,0.304,1.861,0.625,3.217,0.964
				c1.755,0.461,3.167,0.923,4.234,1.382c1.067,0.461,1.983,1.164,2.75,2.11c0.767,0.946,1.151,2.219,1.151,3.82
				c0,1.334-0.333,2.553-1.001,3.656c-0.666,1.103-1.678,1.976-3.033,2.619c-1.356,0.642-3.023,0.964-5.001,0.964
				C1010.958,689.47,1009.264,689.173,1007.631,688.579z"/>
			<path fill="#020D29" d="M1041.45,680.376v8.802h-3.301v-8.875l-9.267-16.586h3.567l7.467,13.422l7.501-13.422h3.3
				L1041.45,680.376z"/>
			<path fill="#020D29" d="M1061.702,688.579c-1.634-0.594-2.918-1.365-3.851-2.31l1.233-2.838c0.889,0.873,2.028,1.583,3.417,2.128
				c1.389,0.546,2.817,0.818,4.284,0.818c1.934,0,3.377-0.357,4.334-1.073c0.955-0.715,1.434-1.667,1.434-2.856
				c0-0.873-0.261-1.582-0.783-2.127c-0.523-0.546-1.167-0.964-1.934-1.255c-0.767-0.291-1.85-0.619-3.25-0.983
				c-1.755-0.46-3.172-0.921-4.251-1.381c-1.077-0.461-2-1.17-2.767-2.128c-0.767-0.957-1.149-2.249-1.149-3.874
				c0-1.358,0.328-2.582,0.983-3.673c0.655-1.091,1.651-1.965,2.984-2.619c1.334-0.655,2.989-0.983,4.967-0.983
				c1.378,0,2.734,0.194,4.067,0.582c1.334,0.389,2.478,0.946,3.434,1.673l-1.1,2.91c-0.978-0.679-2.023-1.194-3.134-1.546
				c-1.111-0.351-2.2-0.527-3.267-0.527c-1.889,0-3.306,0.376-4.25,1.128c-0.945,0.752-1.417,1.722-1.417,2.91
				c0,0.872,0.266,1.582,0.8,2.127c0.533,0.546,1.194,0.97,1.983,1.273c0.788,0.304,1.861,0.625,3.217,0.964
				c1.755,0.461,3.167,0.923,4.234,1.382c1.067,0.461,1.983,1.164,2.75,2.11c0.767,0.946,1.151,2.219,1.151,3.82
				c0,1.334-0.333,2.553-1,3.656c-0.666,1.103-1.678,1.976-3.033,2.619c-1.356,0.642-3.023,0.964-5.001,0.964
				C1065.03,689.47,1063.335,689.173,1061.702,688.579z"/>
			<path fill="#020D29" d="M1091.389,666.881h-8.001v-3.164h19.302v3.164h-8v22.297h-3.301V666.881z"/>
			<path fill="#020D29" d="M1129.659,686.014v3.164h-16.935v-25.462h16.468v3.164h-13.135v7.821h11.701v3.092h-11.701v8.22H1129.659
				z"/>
			<path fill="#020D29" d="M1163.096,689.179l-0.034-18.551l-8.434,15.46h-1.533l-8.434-15.35v18.441h-3.2v-25.462h2.733
				l9.735,17.896l9.601-17.896h2.733l0.034,25.462H1163.096z"/>
		</g>
	</g>
</g>
<g id="Logo_icon">
</g>
<g id="Spark">
</g>
<g id="Wordmark">
</g>
</svg>
