<?xml version="1.0" encoding="UTF-8"?>
<svg xmlns="http://www.w3.org/2000/svg" viewBox="0 0 338.64 95.12" fill="none" role="img" aria-label="Chasum">
  <title>Chasum</title>
  <g transform="translate(4 4)"><g transform="translate(0 69.75)"><path fill="#FFFFFF" d="M27.67 0.70Q20.60 0.70 14.99-2.43Q9.39-5.55 6.13-11.55Q2.88-17.54 2.88-26.16Q2.88-34.80 6.17-40.82Q9.46-46.83 15.08-49.96Q20.71-53.09 27.67-53.09Q33.89-53.09 38.85-50.84Q43.80-48.59 46.93-44.30Q50.06-40.01 50.80-33.89L38.25-33.89Q37.65-37.72 34.93-39.96Q32.20-42.19 27.98-42.19Q22.22-42.19 18.90-37.99Q15.57-33.79 15.57-26.16Q15.57-18.28 18.91-14.24Q22.25-10.20 27.91-10.20Q32.13-10.20 34.88-12.43Q37.62-14.66 38.29-18.49L50.84-18.49Q50.48-14.98 48.81-11.57Q47.14-8.16 44.23-5.38Q41.31-2.60 37.16-0.95Q33.01 0.70 27.67 0.70"/><path fill="#FFFFFF" d="M70.03 0L57.62 0L57.62-52.38L70.03-52.38L70.03-31.82L90.95-31.82L90.95-52.38L103.32-52.38L103.32 0L90.95 0L90.95-21.69L70.03-21.69"/><path d="M114.49 -0.36 L135.14 -50.94 L155.79 -0.36" fill="none" stroke="#FFFFFF" stroke-width="12.1" stroke-linejoin="miter" stroke-miterlimit="1.8" stroke-linecap="butt"/><circle cx="135.14" cy="-21.6" r="6.34" fill="#2563EB"/><path fill="#FFFFFF" d="M187.14 0.70Q177.29 0.70 171.40-3.76Q165.52-8.23 165.38-17.30L177.29-17.30Q177.50-13.46 180.12-11.53Q182.74-9.60 187-9.60Q190.86-9.60 193.08-11.16Q195.29-12.73 195.29-15.22Q195.29-17.47 193.20-18.79Q191.11-20.11 186.82-21.09L181.27-22.39Q174.48-23.94 170.61-27.46Q166.75-30.97 166.75-36.88Q166.75-41.73 169.37-45.37Q171.98-49.01 176.59-51.05Q181.20-53.09 187.14-53.09Q193.22-53.09 197.68-51.03Q202.15-48.97 204.61-45.30Q207.07-41.62 207.14-36.77L195.22-36.77Q194.98-39.62 192.90-41.20Q190.83-42.79 187.10-42.79Q183.38-42.79 181.48-41.34Q179.58-39.90 179.58-37.72Q179.58-35.30 181.69-33.98Q183.80-32.66 187.31-31.89L191.85-30.83Q199.44-29.14 203.64-25.31Q207.84-21.48 207.84-15.19Q207.84-7.73 202.36-3.52Q196.88 0.70 187.14 0.70"/><path fill="#FFFFFF" d="M236.53 0.67Q229.89 0.67 224.93-1.71Q219.97-4.08 217.21-8.42Q214.45-12.76 214.45-18.60L214.45-52.38L226.86-52.38L226.86-19.62Q226.86-15.50 229.54-12.83Q232.21-10.16 236.53-10.16Q240.89-10.16 243.56-12.83Q246.23-15.50 246.23-19.62L246.23-52.38L258.64-52.38L258.64-18.60Q258.64-12.76 255.87-8.42Q253.09-4.08 248.12-1.71Q243.14 0.67 236.53 0.67"/><path fill="#FFFFFF" d="M279.25 0L266.80 0L266.80-52.38L286.14-52.38L292.82-31.99Q293.34-30.20 294.03-27.32Q294.71-24.43 295.42-21.09Q296.12-17.75 296.75-14.62Q297.35-17.75 298.04-21.08Q298.72-24.40 299.41-27.30Q300.09-30.20 300.62-31.99L307.20-52.38L326.57-52.38L326.57 0L314.09 0L314.09-22.57Q314.09-24.57 314.17-27.83Q314.26-31.08 314.37-34.87Q314.47-38.67 314.54-42.19Q313.66-38.46 312.70-34.70Q311.73-30.94 310.85-27.76Q309.97-24.57 309.34-22.57L301.89 0L291.52 0L283.96-22.57Q283.36-24.50 282.48-27.56Q281.60-30.62 280.63-34.26Q279.67-37.90 278.79-41.59Q278.86-38.14 278.96-34.49Q279.07-30.83 279.16-27.69Q279.25-24.54 279.25-22.57"/></g></g>
</svg>
