<?xml version="1.0" encoding="utf-8"?>
<!-- Generator: Adobe Illustrator 24.3.0, SVG Export Plug-In . SVG Version: 6.00 Build 0)  -->
<svg version="1.1" xmlns="http://www.w3.org/2000/svg" xmlns:xlink="http://www.w3.org/1999/xlink" x="0px" y="0px" width="1200px"
	 height="1200px" viewBox="0 0 1200 1200" enable-background="new 0 0 1200 1200" xml:space="preserve">
<g id="master_logo">
</g>
<g id="Logo_icon">
</g>
<g id="Spark">
</g>
<g id="Wordmark">
	<g>
		<g>
			<g>
				<path fill="#FFFFFF" d="M73.383,544.513v14.797c0,37.672,30.539,68.21,68.211,68.21h59.91v-29.353h-52.451
					c-24.251,0-43.91-19.659-43.91-43.91v-4.692c0-24.251,19.659-43.91,43.91-43.91h52.451v-29.353h-59.91
					C103.922,476.302,73.383,506.842,73.383,544.513z"/>
				<polygon fill="#FFFFFF" points="351.398,536.212 274.526,536.212 274.526,476.302 243.127,476.302 243.127,627.521 
					274.526,627.521 274.526,567.611 351.398,567.611 351.398,627.521 382.797,627.521 382.797,476.302 351.398,476.302 				"/>
				<polygon fill="#FFFFFF" points="501.895,476.302 486.376,476.302 418.887,627.521 454.616,627.521 501.895,522.859 
					549.173,627.521 584.902,627.521 517.413,476.302 				"/>
				<path fill="#FFFFFF" d="M707.916,538.03h-40.997c-9.39,0-16.898-8.059-15.985-17.638c0.796-8.35,8.287-14.483,16.675-14.483
					h82.225v-29.607h-85.48c-24.712,0-44.745,20.033-44.745,44.745v0.374c0,24.712,20.033,44.745,44.745,44.745h40.909
					c8.87,0,16.06,7.19,16.06,16.06v0c0,8.87-7.19,16.06-16.06,16.06h-82.827v29.233h85.48c24.712,0,44.746-20.033,44.746-44.745v0
					C752.662,558.063,732.628,538.03,707.916,538.03z"/>
				<path fill="#FFFFFF" d="M896.361,559.31c0,20.331-16.481,36.812-36.812,36.812h0c-20.331,0-36.812-16.481-36.812-36.812v-83.008
					h-31.038v86.196c0,37.472,30.377,67.85,67.85,67.85h0c37.472,0,67.85-30.377,67.85-67.85v-86.196h-31.038V559.31z"/>
				<polygon fill="#FFFFFF" points="1093.414,476.302 1047.579,574.769 1001.745,476.302 968.542,476.302 968.542,627.521 
					1001.023,627.521 1001.023,551.912 1034.948,618.137 1047.579,618.137 1060.211,618.137 1094.136,551.912 1094.136,627.521 
					1126.617,627.521 1126.617,476.302 				"/>
			</g>
			<linearGradient id="wml-1_" gradientUnits="userSpaceOnUse" x1="482.4059" y1="606.9493" x2="521.3834" y2="606.9493">
				<stop  offset="0.0608" style="stop-color:#0D6AFD"/>
				<stop  offset="1" style="stop-color:#003CE6"/>
			</linearGradient>
			<circle fill="url(#wml-1_)" cx="501.895" cy="606.949" r="19.489"/>
		</g>
		<g>
			<path fill="#FFFFFF" d="M99.431,714.385H81.878l-3.634,8.905h-4.86l14.958-35.621h4.672l15.006,35.621h-4.954L99.431,714.385z
				 M97.78,710.315l-7.126-17.455l-7.126,17.455H97.78z"/>
			<path fill="#FFFFFF" d="M121.987,687.669h4.718v35.621h-4.718V687.669z"/>
			<path fill="#FFFFFF" d="M194.184,707.948c1.101,1.509,1.652,3.418,1.652,5.725c0,3.087-1.078,5.462-3.233,7.124
				c-2.155,1.662-5.292,2.493-9.414,2.493h-15.76v-35.621h14.816c3.775,0,6.693,0.814,8.754,2.443
				c2.06,1.628,3.091,3.884,3.091,6.768c0,1.865-0.401,3.477-1.204,4.834c-0.802,1.357-1.88,2.391-3.232,3.103
				C191.572,705.396,193.084,706.438,194.184,707.948z M172.147,691.791v11.399h9.673c2.423,0,4.286-0.483,5.592-1.451
				c1.304-0.966,1.958-2.383,1.958-4.249c0-1.865-0.654-3.283-1.958-4.249c-1.306-0.968-3.169-1.451-5.592-1.451H172.147z
				 M189.042,717.744c1.352-0.95,2.028-2.443,2.028-4.478c0-3.97-2.689-5.954-8.069-5.954h-10.854v11.856h10.854
				C185.674,719.168,187.688,718.694,189.042,717.744z"/>
			<path fill="#FFFFFF" d="M215.608,719.627c-2.454-2.714-3.68-6.616-3.68-11.704v-20.253h4.718v20.05
				c0,7.632,3.099,11.449,9.296,11.449c3.021,0,5.333-0.941,6.937-2.824s2.406-4.758,2.406-8.625v-20.05h4.577v20.253
				c0,5.123-1.226,9.032-3.68,11.729c-2.454,2.697-5.883,4.046-10.287,4.046C221.491,723.698,218.062,722.341,215.608,719.627z"/>
			<path fill="#FFFFFF" d="M261.026,722.451c-2.313-0.831-4.13-1.909-5.451-3.232l1.746-3.97c1.258,1.222,2.87,2.214,4.837,2.978
				c1.967,0.763,3.988,1.144,6.064,1.144c2.737,0,4.781-0.5,6.134-1.5c1.352-1.001,2.029-2.332,2.029-3.995
				c0-1.222-0.37-2.213-1.109-2.976c-0.74-0.763-1.652-1.349-2.737-1.756s-2.619-0.866-4.601-1.375
				c-2.485-0.643-4.49-1.288-6.017-1.933c-1.525-0.645-2.831-1.637-3.916-2.978c-1.085-1.339-1.627-3.146-1.627-5.419
				c0-1.899,0.464-3.613,1.391-5.139s2.337-2.748,4.224-3.664c1.888-0.917,4.231-1.375,7.031-1.375c1.951,0,3.87,0.272,5.757,0.814
				c1.888,0.544,3.507,1.324,4.86,2.341l-1.557,4.071c-1.384-0.95-2.863-1.67-4.436-2.163c-1.573-0.491-3.115-0.737-4.624-0.737
				c-2.673,0-4.679,0.526-6.015,1.578c-1.338,1.052-2.006,2.409-2.006,4.071c0,1.22,0.377,2.213,1.133,2.976
				c0.754,0.763,1.69,1.357,2.807,1.781c1.116,0.425,2.634,0.874,4.553,1.349c2.485,0.645,4.483,1.291,5.993,1.934
				c1.51,0.645,2.807,1.629,3.893,2.951c1.085,1.324,1.629,3.105,1.629,5.344c0,1.866-0.472,3.571-1.416,5.114
				c-0.943,1.543-2.376,2.765-4.293,3.664c-1.919,0.899-4.279,1.349-7.078,1.349C265.736,723.698,263.338,723.282,261.026,722.451z"
				/>
			<path fill="#FFFFFF" d="M296.96,687.669h4.718v35.621h-4.718V687.669z"/>
			<path fill="#FFFFFF" d="M349.055,687.669v35.621h-3.87l-19.819-26.563v26.563h-4.718v-35.621h3.869l19.819,26.563v-26.563
				H349.055z"/>
			<path fill="#FFFFFF" d="M391.997,718.863v4.427h-23.971v-35.621h23.311v4.427h-18.593v10.941h16.563v4.326h-16.563v11.5H391.997z
				"/>
			<path fill="#FFFFFF" d="M411.131,722.451c-2.313-0.831-4.13-1.909-5.451-3.232l1.746-3.97c1.258,1.222,2.87,2.214,4.837,2.978
				c1.967,0.763,3.988,1.144,6.064,1.144c2.737,0,4.781-0.5,6.134-1.5c1.352-1.001,2.029-2.332,2.029-3.995
				c0-1.222-0.37-2.213-1.109-2.976c-0.74-0.763-1.652-1.349-2.737-1.756s-2.619-0.866-4.601-1.375
				c-2.485-0.643-4.49-1.288-6.017-1.933c-1.525-0.645-2.831-1.637-3.916-2.978c-1.085-1.339-1.627-3.146-1.627-5.419
				c0-1.899,0.464-3.613,1.391-5.139s2.337-2.748,4.224-3.664c1.888-0.917,4.231-1.375,7.031-1.375c1.951,0,3.87,0.272,5.757,0.814
				c1.888,0.544,3.507,1.324,4.86,2.341l-1.557,4.071c-1.384-0.95-2.863-1.67-4.436-2.163c-1.573-0.491-3.115-0.737-4.624-0.737
				c-2.673,0-4.679,0.526-6.015,1.578c-1.338,1.052-2.006,2.409-2.006,4.071c0,1.22,0.377,2.213,1.133,2.976
				c0.754,0.763,1.69,1.357,2.807,1.781c1.116,0.425,2.634,0.874,4.553,1.349c2.485,0.645,4.483,1.291,5.993,1.934
				c1.51,0.645,2.807,1.629,3.893,2.951c1.085,1.324,1.629,3.105,1.629,5.344c0,1.866-0.472,3.571-1.416,5.114
				c-0.943,1.543-2.376,2.765-4.293,3.664c-1.919,0.899-4.279,1.349-7.078,1.349C415.841,723.698,413.443,723.282,411.131,722.451z"
				/>
			<path fill="#FFFFFF" d="M449.495,722.451c-2.313-0.831-4.13-1.909-5.451-3.232l1.746-3.97c1.258,1.222,2.87,2.214,4.837,2.978
				s3.987,1.144,6.064,1.144c2.737,0,4.781-0.5,6.134-1.5c1.352-1.001,2.029-2.332,2.029-3.995c0-1.222-0.37-2.213-1.109-2.976
				c-0.74-0.763-1.652-1.349-2.737-1.756c-1.085-0.407-2.619-0.866-4.601-1.375c-2.485-0.643-4.49-1.288-6.017-1.933
				c-1.525-0.645-2.831-1.637-3.916-2.978c-1.085-1.339-1.627-3.146-1.627-5.419c0-1.899,0.464-3.613,1.391-5.139
				s2.337-2.748,4.224-3.664c1.888-0.917,4.231-1.375,7.031-1.375c1.951,0,3.87,0.272,5.757,0.814
				c1.888,0.544,3.507,1.324,4.86,2.341l-1.557,4.071c-1.384-0.95-2.863-1.67-4.436-2.163c-1.573-0.491-3.115-0.737-4.624-0.737
				c-2.673,0-4.679,0.526-6.016,1.578c-1.338,1.052-2.006,2.409-2.006,4.071c0,1.22,0.377,2.213,1.133,2.976
				c0.754,0.763,1.69,1.357,2.807,1.781c1.116,0.425,2.634,0.874,4.553,1.349c2.485,0.645,4.483,1.291,5.993,1.934
				c1.51,0.645,2.807,1.629,3.893,2.951c1.085,1.324,1.629,3.105,1.629,5.344c0,1.866-0.472,3.571-1.416,5.114
				c-0.943,1.543-2.376,2.765-4.293,3.664c-1.919,0.899-4.279,1.349-7.078,1.349C454.205,723.698,451.806,723.282,449.495,722.451z"
				/>
			<path fill="#FFFFFF" d="M513.08,721.331c-2.675-1.578-4.774-3.757-6.3-6.539c-1.525-2.782-2.288-5.886-2.288-9.312
				c0-3.426,0.763-6.531,2.288-9.314c1.527-2.78,3.626-4.961,6.3-6.539c2.673-1.576,5.677-2.366,9.013-2.366
				c3.303,0,6.292,0.79,8.965,2.366c2.675,1.578,4.767,3.749,6.277,6.514c1.51,2.765,2.265,5.878,2.265,9.338
				c0,3.459-0.756,6.572-2.265,9.337c-1.51,2.765-3.602,4.936-6.277,6.514c-2.673,1.578-5.662,2.366-8.965,2.366
				C518.758,723.698,515.753,722.909,513.08,721.331z M528.628,717.388c1.936-1.187,3.461-2.824,4.578-4.911
				c1.116-2.086,1.675-4.417,1.675-6.996c0-2.579-0.559-4.911-1.675-6.997c-1.117-2.087-2.643-3.723-4.578-4.911
				c-1.934-1.187-4.113-1.781-6.535-1.781c-2.423,0-4.617,0.594-6.583,1.781c-1.967,1.189-3.508,2.824-4.624,4.911
				c-1.117,2.086-1.676,4.419-1.676,6.997c0,2.579,0.559,4.91,1.676,6.996c1.116,2.087,2.658,3.724,4.624,4.911
				c1.965,1.187,4.159,1.781,6.583,1.781C524.515,719.168,526.693,718.575,528.628,717.388z"/>
			<path fill="#FFFFFF" d="M578.859,690.976c2.454,2.206,3.682,5.241,3.682,9.109c0,3.868-1.228,6.903-3.682,9.109
				c-2.453,2.205-5.82,3.307-10.098,3.307h-8.164v10.788h-4.718v-35.621h12.882C573.039,687.669,576.407,688.772,578.859,690.976z
				 M575.463,706.015c1.573-1.375,2.359-3.35,2.359-5.929c0-2.577-0.786-4.554-2.359-5.929c-1.574-1.374-3.855-2.061-6.842-2.061
				h-8.022v15.98h8.022C571.608,708.075,573.888,707.388,575.463,706.015z"/>
			<path fill="#FFFFFF" d="M622.51,718.863v4.427h-23.971v-35.621h23.31v4.427h-18.593v10.941h16.563v4.326h-16.563v11.5H622.51z"/>
			<path fill="#FFFFFF" d="M661.297,723.29l-7.124-10.941c-0.881,0.069-1.574,0.102-2.077,0.102h-8.164v10.839h-4.718v-35.621
				h12.882c4.278,0,7.645,1.103,10.098,3.307c2.454,2.206,3.682,5.241,3.682,9.109c0,2.748-0.63,5.088-1.888,7.022
				s-3.052,3.342-5.379,4.224l7.833,11.958H661.297z M658.797,706.039c1.573-1.39,2.359-3.375,2.359-5.954
				c0-2.577-0.786-4.554-2.359-5.929c-1.574-1.374-3.855-2.061-6.842-2.061h-8.023v16.031h8.023
				C654.942,708.127,657.222,707.431,658.797,706.039z"/>
			<path fill="#FFFFFF" d="M703.624,714.385h-17.553l-3.634,8.905h-4.86l14.958-35.621h4.672l15.006,35.621h-4.954L703.624,714.385z
				 M701.973,710.315l-7.126-17.455l-7.126,17.455H701.973z"/>
			<path fill="#FFFFFF" d="M731.088,692.096h-11.326v-4.427h27.322v4.427H735.76v31.194h-4.672V692.096z"/>
			<path fill="#FFFFFF" d="M761.29,687.669h4.718v35.621h-4.718V687.669z"/>
			<path fill="#FFFFFF" d="M813.385,687.669v35.621h-3.87l-19.819-26.563v26.563h-4.718v-35.621h3.869l19.819,26.563v-26.563
				H813.385z"/>
			<path fill="#FFFFFF" d="M855.24,705.276h4.529v13.892c-1.636,1.459-3.539,2.579-5.71,3.359c-2.17,0.78-4.436,1.171-6.795,1.171
				c-3.335,0-6.34-0.788-9.013-2.366c-2.675-1.578-4.774-3.749-6.3-6.514c-1.525-2.765-2.288-5.878-2.288-9.337
				c0-3.461,0.763-6.582,2.288-9.363c1.527-2.781,3.634-4.953,6.324-6.514c2.69-1.56,5.717-2.341,9.084-2.341
				c2.643,0,5.041,0.467,7.196,1.4c2.154,0.933,3.987,2.298,5.497,4.097l-2.926,3.154c-2.643-2.747-5.835-4.122-9.578-4.122
				c-2.518,0-4.775,0.585-6.772,1.756s-3.562,2.799-4.694,4.885c-1.133,2.086-1.7,4.435-1.7,7.048c0,2.579,0.567,4.91,1.7,6.996
				c1.133,2.087,2.697,3.724,4.694,4.911s4.239,1.781,6.725,1.781c2.957,0,5.536-0.763,7.739-2.29V705.276z"/>
			<path fill="#FFFFFF" d="M902.027,722.451c-2.313-0.831-4.13-1.909-5.451-3.232l1.746-3.97c1.258,1.222,2.87,2.214,4.837,2.978
				c1.966,0.763,3.987,1.144,6.064,1.144c2.737,0,4.781-0.5,6.134-1.5c1.352-1.001,2.029-2.332,2.029-3.995
				c0-1.222-0.37-2.213-1.109-2.976c-0.74-0.763-1.652-1.349-2.737-1.756s-2.619-0.866-4.601-1.375
				c-2.485-0.643-4.49-1.288-6.017-1.933c-1.525-0.645-2.831-1.637-3.916-2.978c-1.085-1.339-1.627-3.146-1.627-5.419
				c0-1.899,0.464-3.613,1.391-5.139c0.927-1.527,2.337-2.748,4.224-3.664c1.888-0.917,4.231-1.375,7.031-1.375
				c1.951,0,3.87,0.272,5.757,0.814c1.888,0.544,3.507,1.324,4.86,2.341l-1.557,4.071c-1.384-0.95-2.863-1.67-4.436-2.163
				c-1.573-0.491-3.115-0.737-4.624-0.737c-2.673,0-4.679,0.526-6.016,1.578c-1.338,1.052-2.006,2.409-2.006,4.071
				c0,1.22,0.377,2.213,1.133,2.976c0.754,0.763,1.69,1.357,2.807,1.781c1.116,0.425,2.634,0.874,4.553,1.349
				c2.485,0.645,4.483,1.291,5.993,1.934c1.51,0.645,2.807,1.629,3.893,2.951c1.085,1.324,1.629,3.105,1.629,5.344
				c0,1.866-0.472,3.571-1.416,5.114c-0.943,1.543-2.376,2.765-4.293,3.664c-1.919,0.899-4.279,1.349-7.078,1.349
				C906.737,723.698,904.339,723.282,902.027,722.451z"/>
			<path fill="#FFFFFF" d="M949.898,710.976v12.315h-4.672v-12.417l-13.118-23.205h5.049l10.57,18.778l10.618-18.778h4.672
				L949.898,710.976z"/>
			<path fill="#FFFFFF" d="M978.565,722.451c-2.313-0.831-4.13-1.909-5.451-3.232l1.746-3.97c1.258,1.222,2.87,2.214,4.837,2.978
				c1.966,0.763,3.987,1.144,6.064,1.144c2.737,0,4.781-0.5,6.134-1.5c1.352-1.001,2.029-2.332,2.029-3.995
				c0-1.222-0.37-2.213-1.109-2.976c-0.74-0.763-1.652-1.349-2.737-1.756s-2.619-0.866-4.601-1.375
				c-2.485-0.643-4.49-1.288-6.017-1.933c-1.525-0.645-2.831-1.637-3.916-2.978c-1.085-1.339-1.627-3.146-1.627-5.419
				c0-1.899,0.464-3.613,1.391-5.139s2.337-2.748,4.224-3.664c1.888-0.917,4.231-1.375,7.031-1.375c1.951,0,3.87,0.272,5.757,0.814
				c1.888,0.544,3.507,1.324,4.86,2.341l-1.557,4.071c-1.384-0.95-2.863-1.67-4.436-2.163c-1.573-0.491-3.115-0.737-4.624-0.737
				c-2.673,0-4.679,0.526-6.015,1.578c-1.338,1.052-2.006,2.409-2.006,4.071c0,1.22,0.377,2.213,1.133,2.976
				c0.754,0.763,1.69,1.357,2.807,1.781c1.116,0.425,2.634,0.874,4.553,1.349c2.485,0.645,4.483,1.291,5.993,1.934
				c1.51,0.645,2.807,1.629,3.893,2.951c1.085,1.324,1.628,3.105,1.628,5.344c0,1.866-0.472,3.571-1.416,5.114
				c-0.943,1.543-2.376,2.765-4.293,3.664c-1.919,0.899-4.279,1.349-7.078,1.349C983.275,723.698,980.877,723.282,978.565,722.451z"
				/>
			<path fill="#FFFFFF" d="M1020.587,692.096h-11.326v-4.427h27.322v4.427h-11.324v31.194h-4.672V692.096z"/>
			<path fill="#FFFFFF" d="M1074.758,718.863v4.427h-23.971v-35.621h23.311v4.427h-18.593v10.941h16.563v4.326h-16.563v11.5
				H1074.758z"/>
			<path fill="#FFFFFF" d="M1122.088,723.29l-0.047-25.953l-11.939,21.628h-2.17l-11.939-21.475v25.8h-4.529v-35.621h3.869
				l13.78,25.036l13.59-25.036h3.869l0.047,35.621H1122.088z"/>
		</g>
	</g>
</g>
</svg>
